<svg width="254" height="65" viewBox="0 0 254 65" fill="none" xmlns="http://www.w3.org/2000/svg">
<mask id="mask0_61_1520" style="mask-type:luminance" maskUnits="userSpaceOnUse" x="0" y="0" width="254" height="51">
<path d="M0.0625 0.90625H253.068V51H0.0625V0.90625Z" fill="white"/>
</mask>
<g mask="url(#mask0_61_1520)">
<path d="M247.646 1.21362H5.48438C2.51042 1.21362 0.0625 3.65633 0.0625 6.61987V44.7292C0.0625 47.698 2.51042 50.1355 5.48438 50.1355H247.646C250.625 50.1355 253.063 47.698 253.063 44.7292V6.61987C253.063 3.59904 250.677 1.21362 247.646 1.21362Z" fill="#F53E67"/>
</g>
<path d="M108.745 46.849L122.448 62.9636C124.625 65.5105 128.557 65.5105 130.734 62.9636L144.438 46.849H108.745Z" fill="#F53E67"/>
<path d="M197.193 28.2969H187.365C183.01 28.2969 179.448 31.849 179.448 36.1979V39.1667H205.052V36.1979C205.052 31.849 201.547 28.2969 197.193 28.2969Z" fill="white"/>
<path d="M192.25 26.6042C196.234 26.6042 199.474 23.3698 199.474 19.3958C199.474 15.4219 196.234 12.1875 192.25 12.1875C188.266 12.1875 185.026 15.4219 185.026 19.3958C185.026 23.3698 188.266 26.6042 192.25 26.6042Z" fill="white"/>
<path d="M218.068 33.9167C216.526 33.9167 215.198 33.4949 214.187 32.5938C213.125 31.6928 212.594 30.5782 212.49 29.2032H214.505C214.615 30.0522 214.984 30.7917 215.625 31.323C216.312 31.8542 217.109 32.1147 218.12 32.1147C219.234 32.1147 220.135 31.7449 220.828 31.0574C221.521 30.3699 221.891 29.4688 221.891 28.3542C221.891 27.2397 221.521 26.3386 220.828 25.6511C220.135 24.9636 219.234 24.5886 218.172 24.5886C217.427 24.5886 216.74 24.7501 216.099 25.0678C215.463 25.3855 214.984 25.8647 214.667 26.3907H212.755L213.656 17.2761H222.953V19.0782H215.302L214.828 24.3803H214.88C215.25 23.9011 215.729 23.5313 216.422 23.2136C217.057 22.948 217.75 22.7865 218.547 22.7865C220.083 22.7865 221.411 23.3178 222.422 24.3282C223.432 25.3334 223.963 26.6563 223.963 28.2501C223.963 29.8907 223.432 31.2136 222.318 32.224C221.146 33.4428 219.766 33.9167 218.068 33.9167Z" fill="white"/>
<path d="M231.557 33.9167C230.021 33.9167 228.693 33.4949 227.682 32.5938C226.62 31.6928 226.089 30.5782 225.984 29.2032H228C228.109 30.0522 228.479 30.7917 229.115 31.323C229.807 31.8542 230.604 32.1147 231.615 32.1147C232.729 32.1147 233.63 31.7449 234.323 31.0574C235.01 30.3699 235.385 29.4688 235.385 28.3542C235.385 27.2397 235.01 26.3386 234.323 25.6511C233.63 24.9636 232.729 24.5886 231.667 24.5886C230.922 24.5886 230.234 24.7501 229.594 25.0678C228.958 25.3855 228.479 25.8647 228.161 26.3907H226.25L227.151 17.2761H236.448V19.0782H228.797L228.318 24.3803H228.375C228.745 23.9011 229.224 23.5313 229.911 23.2136C230.552 22.948 231.24 22.7865 232.036 22.7865C233.578 22.7865 234.906 23.3178 235.917 24.3282C236.922 25.3334 237.453 26.6563 237.453 28.2501C237.453 29.8907 236.922 31.2136 235.813 32.224C234.693 33.4428 233.26 33.9167 231.557 33.9167Z" fill="white"/>
<path d="M117.938 20.6667C117.083 18.073 115.12 16.1615 112.833 15.5782C111.88 15.3698 110.979 15.2084 110.182 15.2084C107.844 15.2084 106.037 16.1615 104.604 18.1771L104.443 18.4427L104.281 18.1771C102.849 16.1615 100.99 15.2084 98.7084 15.2084C97.9116 15.2084 97.0053 15.3177 96.0522 15.5782C93.7657 16.1615 91.8022 18.073 90.9532 20.6667C90.047 23.4792 90.5261 26.3386 92.3334 28.5105C96.2084 33.1771 104.339 39.323 104.391 39.3802L104.443 39.4323L104.547 39.3802C104.87 39.1146 112.833 33.073 116.609 28.5105C118.359 26.3386 118.839 23.4271 117.938 20.6667Z" fill="white"/>
<path d="M125.797 22.3646C125.797 20.9323 126.328 19.7657 127.333 18.8125C128.344 17.8594 129.62 17.3802 131.161 17.3802C132.594 17.3802 133.818 17.8073 134.823 18.6563C135.833 19.5 136.313 20.5625 136.313 21.8334C136.313 22.7344 136.047 23.5834 135.568 24.4323C135.089 25.2813 134.135 26.3907 132.755 27.823L128.609 32.0625V32.1146H136.526V33.9167H125.797V32.5417L131.531 26.5C132.646 25.3334 133.339 24.4844 133.708 23.9011C134.083 23.3177 134.24 22.6823 134.24 21.9948C134.24 21.198 133.922 20.5625 133.286 19.9792C132.646 19.448 131.901 19.1302 131 19.1302C130.042 19.1302 129.245 19.448 128.609 20.0313C127.974 20.6146 127.651 21.4115 127.651 22.3125L125.797 22.3646Z" fill="white"/>
<path d="M138.865 22.3646C138.865 20.9323 139.391 19.7657 140.401 18.8125C141.411 17.8594 142.687 17.3802 144.229 17.3802C145.661 17.3802 146.885 17.8073 147.891 18.6563C148.901 19.5 149.38 20.5625 149.38 21.8334C149.38 22.7344 149.115 23.5834 148.635 24.4323C148.156 25.2813 147.203 26.3907 145.823 27.823L141.677 32.0625V32.1146H149.594V33.9167H138.865V32.5417L144.599 26.5C145.713 25.3334 146.406 24.4844 146.776 23.9011C147.146 23.3177 147.307 22.6823 147.307 21.9948C147.307 21.198 146.99 20.5625 146.349 19.9792C145.713 19.448 144.969 19.1302 144.068 19.1302C143.109 19.1302 142.312 19.448 141.677 20.0313C141.042 20.6146 140.719 21.4115 140.719 22.3125L138.865 22.3646Z" fill="white"/>
<path d="M151.927 22.3646C151.927 20.9323 152.458 19.7657 153.469 18.8125C154.479 17.8594 155.75 17.3802 157.292 17.3802C158.724 17.3802 159.948 17.8073 160.958 18.6563C161.969 19.5 162.443 20.5625 162.443 21.8334C162.443 22.7344 162.177 23.5834 161.703 24.4323C161.224 25.2813 160.266 26.3907 158.885 27.823L154.745 32.0625V32.1146H162.656V33.9167H151.927V32.5417L157.661 26.5C158.781 25.3334 159.469 24.4844 159.844 23.9011C160.213 23.3177 160.375 22.6823 160.375 21.9948C160.375 21.198 160.052 20.5625 159.417 19.9792C158.781 19.448 158.036 19.1302 157.135 19.1302C156.177 19.1302 155.38 19.448 154.745 20.0313C154.104 20.6146 153.786 21.4115 153.786 22.3125L151.927 22.3646Z" fill="white"/>
<path d="M41.3905 37.8958L39.8489 31.2708C40.8593 29.4115 41.3905 27.349 41.3905 25.2292C41.3905 18.1771 35.651 12.4531 28.5885 12.4531C21.526 12.4531 15.7864 18.1771 15.7864 25.2292C15.7864 32.276 21.526 38 28.5885 38C30.4999 38 32.3593 37.5781 34.1145 36.7292L40.4322 38.7448C40.9635 38.9531 41.4947 38.4792 41.3905 37.8958Z" fill="white"/>
<path d="M54.401 34.0782C53.0208 34.0782 51.8542 33.7084 50.8438 32.9115C49.8333 32.172 49.25 31.1095 48.9844 29.8386H51.0573C51.2708 30.5782 51.6927 31.1615 52.2813 31.5886C52.8646 32.0105 53.6042 32.2761 54.401 32.2761C55.7292 32.2761 56.7917 31.6928 57.5365 30.5261C58.2813 29.3595 58.651 27.6667 58.7083 25.547C58.3333 26.3386 57.75 26.974 56.9531 27.4532C56.1042 27.9324 55.1979 28.1928 54.1354 28.1928C52.599 28.1928 51.3229 27.6667 50.2604 26.6563C49.25 25.6511 48.7188 24.3803 48.7188 22.8438C48.7188 21.2501 49.25 19.9272 50.3646 18.8647C51.4271 17.8074 52.8125 17.2761 54.5104 17.2761C55.7292 17.2761 56.7917 17.5938 57.75 18.2292C58.7083 18.8647 59.3958 19.7657 59.875 20.9324C60.4063 22.1511 60.6719 23.6355 60.6719 25.4376C60.6719 28.1928 60.1406 30.3126 59.026 31.8542C57.9635 33.3386 56.4219 34.0782 54.401 34.0782ZM54.5625 26.448C55.625 26.448 56.526 26.1303 57.2708 25.4376C57.9635 24.7501 58.3333 23.9011 58.3333 22.8438C58.3333 21.7813 57.9635 20.9324 57.2708 20.1928C56.526 19.448 55.6771 19.1303 54.6146 19.1303C53.5521 19.1303 52.7031 19.5053 51.9583 20.1928C51.2187 20.8803 50.8958 21.7813 50.8958 22.7865C50.8958 23.849 51.2708 24.698 51.9583 25.4376C52.599 26.073 53.4479 26.448 54.5625 26.448Z" fill="white"/>
<path d="M63.5938 33.8126L70.9792 19.3959V19.3438H62.2136V17.5417H72.9949V19.3959L65.7188 33.8126H63.5938Z" fill="white"/>
</svg>
