<svg width="60" height="1196" viewBox="0 0 60 1196" fill="none" xmlns="http://www.w3.org/2000/svg">
<path d="M31.9583 1192.05H40.6875C41.3125 1192.05 41.625 1192.38 41.625 1193.03V1194.78C41.625 1195.4 41.3125 1195.71 40.6875 1195.71H10.9375C10.6771 1195.71 10.4531 1195.64 10.2708 1195.49C10.0937 1195.33 10 1195.1 10 1194.78V1192.99C10 1192.74 10.0833 1192.52 10.25 1192.34C10.4167 1192.15 10.6458 1192.05 10.9375 1192.05H26.7917L10.6458 1176.8C10.2187 1176.45 10 1176.11 10 1175.78V1172.11C10 1171.74 10.0833 1171.55 10.25 1171.55C10.3646 1171.55 10.4792 1171.6 10.6042 1171.71C10.7187 1171.81 10.8021 1171.89 10.8542 1171.94L23.4167 1183.86C26.3229 1181.43 29.2031 1178.96 32.0625 1176.46C34.9115 1173.95 37.8125 1171.54 40.7708 1169.21C41.0208 1169.01 41.1823 1168.9 41.25 1168.9C41.3073 1168.9 41.3854 1168.94 41.4792 1169.03C41.5781 1169.1 41.625 1169.2 41.625 1169.34V1173.01C41.625 1173.23 41.5156 1173.45 41.2917 1173.67C41.0573 1173.88 40.8021 1174.1 40.5208 1174.32C38.1042 1176.31 35.6979 1178.31 33.2917 1180.34C30.8906 1182.35 28.4792 1184.37 26.0625 1186.38L31.9583 1192.05Z" fill="#D6DEE6"/>
<path d="M21.6251 1160.99L23.2084 1160.76C22.5574 1160.4 21.9167 1159.84 21.2917 1159.07C20.6667 1158.3 20.3542 1157.25 20.3542 1155.95C20.3542 1155.32 20.474 1154.71 20.7084 1154.09C20.9324 1153.48 21.1876 1152.98 21.4792 1152.57C21.7605 1152.16 21.9792 1151.95 22.1459 1151.95C22.2032 1151.95 22.2605 1151.96 22.3126 1151.97C22.3699 1151.98 22.4272 1152 22.4792 1152.03L24.5001 1153.09C24.7813 1153.26 24.9167 1153.45 24.9167 1153.66C24.9167 1153.77 24.8907 1153.86 24.8334 1153.95C24.7813 1154.03 24.7397 1154.1 24.7084 1154.16C24.3074 1154.81 24.0782 1155.58 24.0209 1156.47C24.0209 1157.32 24.3074 1158.06 24.8751 1158.7C25.448 1159.34 26.1615 1159.84 27.0209 1160.22C27.8699 1160.58 28.7292 1160.76 29.6042 1160.76H40.6876C41.3126 1160.76 41.6251 1161.07 41.6251 1161.7V1163.45C41.6251 1164.1 41.3126 1164.43 40.6876 1164.43H21.6251C21.349 1164.43 21.1251 1164.34 20.9584 1164.16C20.7813 1163.98 20.6876 1163.75 20.6876 1163.49V1161.97C20.6876 1161.65 20.7865 1161.42 20.9792 1161.26C21.1615 1161.11 21.3751 1161.02 21.6251 1160.99Z" fill="#D6DEE6"/>
<path d="M21.625 1144.52H40.6875C41.3125 1144.52 41.625 1144.83 41.625 1145.46V1147.25C41.625 1147.87 41.3125 1148.19 40.6875 1148.19H21.625C21 1148.19 20.6875 1147.87 20.6875 1147.25V1145.46C20.6875 1144.83 21 1144.52 21.625 1144.52ZM14.8125 1149.04C14.0781 1149.04 13.4479 1148.78 12.9167 1148.25C12.3906 1147.72 12.125 1147.09 12.125 1146.35C12.125 1145.59 12.3906 1144.95 12.9167 1144.44C13.4479 1143.92 14.0781 1143.66 14.8125 1143.66C15.5208 1143.66 16.1406 1143.92 16.6667 1144.44C17.1979 1144.95 17.4583 1145.59 17.4583 1146.35C17.4583 1147.09 17.1979 1147.72 16.6667 1148.25C16.1406 1148.78 15.5208 1149.04 14.8125 1149.04Z" fill="#D6DEE6"/>
<path d="M21.625 1133.95H40.6875C41.3125 1133.95 41.625 1134.26 41.625 1134.88V1136.68C41.625 1137.3 41.3125 1137.61 40.6875 1137.61H21.625C21 1137.61 20.6875 1137.3 20.6875 1136.68V1134.88C20.6875 1134.26 21 1133.95 21.625 1133.95ZM14.8125 1138.47C14.0781 1138.47 13.4479 1138.21 12.9167 1137.68C12.3906 1137.15 12.125 1136.52 12.125 1135.78C12.125 1135.02 12.3906 1134.38 12.9167 1133.86C13.4479 1133.35 14.0781 1133.09 14.8125 1133.09C15.5208 1133.09 16.1406 1133.35 16.6667 1133.86C17.1979 1134.38 17.4583 1135.02 17.4583 1135.78C17.4583 1136.52 17.1979 1137.15 16.6667 1137.68C16.1406 1138.21 15.5208 1138.47 14.8125 1138.47Z" fill="#D6DEE6"/>
<path d="M48.7916 1127.04H21.7708C21.052 1127.04 20.6874 1126.66 20.6874 1125.9V1124.79C20.6874 1124.03 21.052 1123.62 21.7708 1123.56L23.6458 1123.38C22.703 1122.72 21.9062 1121.85 21.2499 1120.75C20.5989 1119.64 20.2708 1118.4 20.2708 1117.02C20.2708 1115.18 20.7603 1113.52 21.7291 1112.04C22.6874 1110.57 23.9947 1109.41 25.6458 1108.54C27.2864 1107.67 29.1197 1107.23 31.1458 1107.23C33.1614 1107.23 34.9895 1107.67 36.6249 1108.54C38.2499 1109.41 39.552 1110.57 40.5208 1112.04C41.4791 1113.52 41.9583 1115.18 41.9583 1117.02C41.9583 1118.48 41.6562 1119.74 41.0624 1120.79C40.4687 1121.83 39.6874 1122.68 38.7291 1123.33H48.7916C49.4999 1123.33 49.8541 1123.75 49.8541 1124.58V1125.81C49.8541 1126.19 49.7499 1126.49 49.5416 1126.71C49.3437 1126.93 49.0937 1127.04 48.7916 1127.04ZM31.2291 1123.38C32.5624 1123.38 33.7812 1123.1 34.8749 1122.56C35.9583 1122.01 36.8333 1121.26 37.4999 1120.31C38.1562 1119.37 38.4791 1118.33 38.4791 1117.21C38.4791 1116.04 38.1562 1115 37.4999 1114.08C36.8333 1113.16 35.9583 1112.42 34.8749 1111.88C33.7812 1111.33 32.5624 1111.06 31.2291 1111.06C29.8958 1111.06 28.677 1111.33 27.5624 1111.88C26.453 1112.42 25.5624 1113.16 24.8958 1114.08C24.2291 1115 23.8958 1116.04 23.8958 1117.21C23.8958 1118.33 24.2291 1119.37 24.8958 1120.31C25.5624 1121.26 26.4478 1122 27.5416 1122.54C28.6405 1123.07 29.8437 1123.35 31.1458 1123.38H31.2291Z" fill="#D6DEE6"/>
<path d="M41.9584 1094.6C41.9584 1094.72 41.9636 1094.84 41.9792 1094.93C41.9897 1095.03 42.0001 1095.15 42.0001 1095.29C42.0001 1096.2 41.8959 1097.07 41.6876 1097.87C41.4792 1098.68 41.0157 1099.33 40.2917 1099.83C39.5574 1100.33 38.4272 1100.58 36.8959 1100.58H24.1042V1103.14C24.1042 1103.47 24.0417 1103.74 23.9167 1103.93C23.7917 1104.12 23.5417 1104.2 23.1667 1104.2H21.5834C21.224 1104.2 20.9897 1104.12 20.8751 1103.93C20.7501 1103.74 20.6876 1103.47 20.6876 1103.14V1100.58H14.6876C14.2292 1100.58 13.948 1100.34 13.8334 1099.85L13.5417 1097.68C13.5417 1097.34 13.6563 1097.12 13.8751 1097.02C14.099 1096.92 14.3542 1096.87 14.6459 1096.87H20.6876V1093.7C20.6876 1093.08 21.0157 1092.77 21.6667 1092.77H23.0834C23.7657 1092.77 24.1042 1093.08 24.1042 1093.7V1096.87H35.5209C36.4949 1096.87 37.1876 1096.8 37.6042 1096.66C38.0105 1096.51 38.2605 1096.28 38.3542 1095.95C38.4376 1095.62 38.4949 1095.17 38.5209 1094.6C38.5209 1093.89 38.8751 1093.54 39.5834 1093.54H40.9376C41.5626 1093.54 41.9011 1093.89 41.9584 1094.6Z" fill="#D6DEE6"/>
<path d="M31.2291 1089.45C29.2187 1089.45 27.3749 1088.97 25.7083 1087.99C24.0416 1087.01 22.7239 1085.69 21.7499 1084.03C20.7655 1082.38 20.2708 1080.55 20.2708 1078.53C20.2708 1076.52 20.7655 1074.69 21.7499 1073.03C22.7239 1071.37 24.0416 1070.05 25.7083 1069.06C27.3749 1068.07 29.2187 1067.58 31.2291 1067.58C33.2447 1067.58 35.078 1068.07 36.7291 1069.06C38.3697 1070.05 39.6822 1071.37 40.6666 1073.03C41.651 1074.69 42.1458 1076.52 42.1458 1078.53C42.1458 1080.55 41.651 1082.38 40.6666 1084.03C39.6822 1085.69 38.3697 1087.01 36.7291 1087.99C35.078 1088.97 33.2447 1089.45 31.2291 1089.45ZM31.2291 1085.99C32.5937 1085.99 33.8437 1085.65 34.9791 1084.97C36.1197 1084.3 37.0312 1083.39 37.7083 1082.26C38.3905 1081.14 38.7291 1079.9 38.7291 1078.53C38.7291 1077.18 38.3905 1075.93 37.7083 1074.78C37.0312 1073.65 36.1197 1072.74 34.9791 1072.06C33.8437 1071.38 32.5937 1071.03 31.2291 1071.03C29.8697 1071.03 28.6145 1071.38 27.4583 1072.06C26.3072 1072.74 25.3905 1073.65 24.7083 1074.78C24.0312 1075.93 23.6874 1077.18 23.6874 1078.53C23.6874 1079.9 24.0312 1081.14 24.7083 1082.26C25.3905 1083.39 26.3072 1084.3 27.4583 1084.97C28.6145 1085.65 29.8697 1085.99 31.2291 1085.99Z" fill="#D6DEE6"/>
<path d="M10.9375 1058.2H40.6875C41.3125 1058.2 41.625 1058.51 41.625 1059.14V1060.93C41.625 1061.55 41.3125 1061.87 40.6875 1061.87H10.9375C10.3125 1061.87 10 1061.55 10 1060.93V1059.14C10 1058.51 10.3125 1058.2 10.9375 1058.2Z" fill="#D6DEE6"/>
<path d="M21.625 1047.63H40.6875C41.3125 1047.63 41.625 1047.94 41.625 1048.56V1050.36C41.625 1050.98 41.3125 1051.29 40.6875 1051.29H21.625C21 1051.29 20.6875 1050.98 20.6875 1050.36V1048.56C20.6875 1047.94 21 1047.63 21.625 1047.63ZM14.8125 1052.15C14.0781 1052.15 13.4479 1051.89 12.9167 1051.36C12.3906 1050.83 12.125 1050.2 12.125 1049.46C12.125 1048.7 12.3906 1048.06 12.9167 1047.54C13.4479 1047.03 14.0781 1046.77 14.8125 1046.77C15.5208 1046.77 16.1406 1047.03 16.6667 1047.54C17.1979 1048.06 17.4583 1048.7 17.4583 1049.46C17.4583 1050.2 17.1979 1050.83 16.6667 1051.36C16.1406 1051.89 15.5208 1052.15 14.8125 1052.15Z" fill="#D6DEE6"/>
<path d="M21.7292 1037.18L23.6458 1037.06C23.1042 1036.61 22.5781 1035.99 22.0625 1035.2C21.5521 1034.4 21.1354 1033.53 20.8125 1032.6C20.4792 1031.65 20.3125 1030.76 20.3125 1029.91C20.3125 1028.26 20.7187 1026.84 21.5208 1025.64C22.3125 1024.45 23.3854 1023.52 24.7292 1022.87C26.0781 1022.22 27.5781 1021.89 29.2292 1021.89H40.5625C40.8958 1021.89 41.1615 1021.99 41.3542 1022.2C41.5365 1022.4 41.625 1022.63 41.625 1022.91V1024.66C41.625 1025.04 41.5417 1025.29 41.375 1025.41C41.1979 1025.54 40.9375 1025.6 40.6042 1025.6H29.2292C27.8021 1025.6 26.5729 1026.07 25.5417 1027.01C24.5 1027.95 23.9792 1029.22 23.9792 1030.85C23.9792 1031.78 24.1979 1032.72 24.625 1033.68C25.0417 1034.63 25.6042 1035.43 26.3125 1036.08C27.0104 1036.73 27.7396 1037.06 28.5 1037.06H40.6875C41.3125 1037.06 41.625 1037.37 41.625 1037.99V1039.74C41.625 1040.4 41.3125 1040.72 40.6875 1040.72H21.7292C21.4115 1040.72 21.1771 1040.63 21.0208 1040.45C20.8698 1040.27 20.7917 1040.05 20.7917 1039.79V1038.18C20.7917 1037.59 21.1042 1037.25 21.7292 1037.18Z" fill="#D6DEE6"/>
<path d="M40.5626 1000.66H38.5626C39.5209 1001.28 40.3438 1002.08 41.0209 1003.05C41.698 1004.01 42.0417 1005.36 42.0417 1007.09C42.0417 1009.08 41.5626 1010.84 40.6042 1012.38C39.6355 1013.92 38.3334 1015.11 36.7084 1015.99C35.073 1016.85 33.2449 1017.28 31.2292 1017.28C29.2188 1017.28 27.3855 1016.85 25.7292 1015.99C24.0782 1015.11 22.7709 1013.92 21.8126 1012.38C20.8438 1010.84 20.3542 1009.08 20.3542 1007.09C20.3542 1005.33 20.7188 1003.98 21.4376 1003.03C22.1615 1002.07 22.9792 1001.28 23.8959 1000.66L21.7709 1000.49C21.0522 1000.44 20.6876 1000.09 20.6876 999.468V998.238C20.6876 997.921 20.7865 997.655 20.9792 997.447C21.1615 997.228 21.4272 997.113 21.7709 997.113H40.6876C40.9688 997.113 41.198 997.228 41.3751 997.447C41.5417 997.655 41.6251 997.921 41.6251 998.238V999.593C41.6251 1000.3 41.2709 1000.66 40.5626 1000.66ZM31.2292 1013.74C32.5626 1013.74 33.7865 1013.47 34.8959 1012.93C36.0105 1012.37 36.8907 1011.59 37.5417 1010.59C38.198 1009.59 38.5209 1008.43 38.5209 1007.09C38.5209 1005.05 37.8334 1003.47 36.4584 1002.34C35.073 1001.22 33.3542 1000.66 31.3126 1000.66C29.9792 1000.66 28.7501 1000.91 27.6251 1001.41C26.5001 1001.91 25.6042 1002.63 24.9376 1003.59C24.2709 1004.54 23.9376 1005.71 23.9376 1007.09C23.9376 1008.46 24.2709 1009.63 24.9376 1010.63C25.6042 1011.63 26.4897 1012.41 27.5834 1012.95C28.6824 1013.48 29.8959 1013.74 31.2292 1013.74Z" fill="#D6DEE6"/>
<path d="M40.2708 893.019V894.686C40.2708 895.019 40.0156 895.301 39.5 895.519L16.4375 905.332L40.6875 907.686C41.3125 907.686 41.625 908.014 41.625 908.665V910.457C41.625 911.082 41.3125 911.394 40.6875 911.394C35.7187 910.884 30.7604 910.368 25.8125 909.853C20.8698 909.342 15.9115 908.827 10.9375 908.311C10.6458 908.311 10.4167 908.217 10.25 908.019C10.0833 907.827 10 907.582 10 907.29V904.644C10 904.202 10.2708 903.889 10.8125 903.707L34.5833 893.832C30.6146 892.181 26.6458 890.535 22.6875 888.894C18.7187 887.243 14.7604 885.592 10.8125 883.936C10.2708 883.801 10 883.498 10 883.04V880.269C10 879.993 10.0937 879.769 10.2708 879.603C10.4531 879.426 10.6771 879.332 10.9375 879.332L40.6875 876.228C41.3125 876.228 41.625 876.556 41.625 877.207V878.998C41.625 879.623 41.3125 879.936 40.6875 879.936L16.4375 882.311L39.5 892.123C40.0156 892.321 40.2708 892.618 40.2708 893.019Z" fill="#D6DEE6"/>
<path d="M42.1458 862.193C42.1458 864.042 41.651 865.734 40.6666 867.276C39.6822 868.807 38.3697 870.021 36.7291 870.922C35.078 871.812 33.2447 872.255 31.2291 872.255C29.2187 872.255 27.3749 871.812 25.7083 870.922C24.0416 870.021 22.7239 868.807 21.7499 867.276C20.7655 865.734 20.2708 864.042 20.2708 862.193C20.2708 860.458 20.7291 858.87 21.6458 857.422C22.552 855.979 23.7655 854.828 25.2916 853.963C26.8072 853.088 28.4895 852.651 30.3333 852.651H30.8333C31.6978 852.651 32.2395 852.922 32.4583 853.463C32.6822 854.005 32.7916 854.661 32.7916 855.422V868.505C34.4999 868.255 35.8905 867.536 36.9583 866.338C38.0312 865.146 38.5624 863.765 38.5624 862.193C38.5624 861.349 38.4114 860.495 38.1041 859.63C37.7864 858.755 37.3437 857.979 36.7708 857.297C36.5624 857.104 36.4583 856.849 36.4583 856.526C36.4583 856.333 36.552 856.172 36.7291 856.047L38.5208 854.859C38.6353 854.75 38.7603 854.693 38.8958 854.693C39.0937 854.724 39.2655 854.818 39.4166 854.984C39.5572 855.14 39.6666 855.286 39.7499 855.422C40.3749 856.38 40.9322 857.417 41.4166 858.526C41.901 859.64 42.1458 860.859 42.1458 862.193ZM29.6458 868.338V856.276C28.5624 856.443 27.5937 856.828 26.7291 857.422C25.8697 858.021 25.177 858.745 24.6458 859.588C24.1197 860.422 23.8541 861.318 23.8541 862.276C23.8541 863.765 24.427 865.057 25.5624 866.151C26.6874 867.234 28.052 867.963 29.6458 868.338Z" fill="#D6DEE6"/>
<path d="M41.9584 840.744C41.9584 840.869 41.9636 840.984 41.9792 841.077C41.9897 841.176 42.0001 841.296 42.0001 841.432C42.0001 842.348 41.8959 843.213 41.6876 844.015C41.4792 844.822 41.0157 845.473 40.2917 845.973C39.5574 846.473 38.4272 846.723 36.8959 846.723H24.1042V849.286C24.1042 849.619 24.0417 849.885 23.9167 850.077C23.7917 850.26 23.5417 850.348 23.1667 850.348H21.5834C21.224 850.348 20.9897 850.26 20.8751 850.077C20.7501 849.885 20.6876 849.619 20.6876 849.286V846.723H14.6876C14.2292 846.723 13.948 846.484 13.8334 845.994L13.5417 843.827C13.5417 843.484 13.6563 843.26 13.8751 843.161C14.099 843.067 14.3542 843.015 14.6459 843.015H20.6876V839.848C20.6876 839.223 21.0157 838.911 21.6667 838.911H23.0834C23.7657 838.911 24.1042 839.223 24.1042 839.848V843.015H35.5209C36.4949 843.015 37.1876 842.947 37.6042 842.807C38.0105 842.656 38.2605 842.421 38.3542 842.098C38.4376 841.765 38.4949 841.317 38.5209 840.744C38.5209 840.036 38.8751 839.682 39.5834 839.682H40.9376C41.5626 839.682 41.9011 840.036 41.9584 840.744Z" fill="#D6DEE6"/>
<path d="M40.5626 819.137H38.5626C39.5209 819.762 40.3438 820.565 41.0209 821.533C41.698 822.492 42.0417 823.841 42.0417 825.575C42.0417 827.565 41.5626 829.325 40.6042 830.867C39.6355 832.398 38.3334 833.596 36.7084 834.471C35.073 835.335 33.2449 835.762 31.2292 835.762C29.2188 835.762 27.3855 835.335 25.7292 834.471C24.0782 833.596 22.7709 832.398 21.8126 830.867C20.8438 829.325 20.3542 827.565 20.3542 825.575C20.3542 823.815 20.7188 822.46 21.4376 821.512C22.1615 820.554 22.9792 819.762 23.8959 819.137L21.7709 818.971C21.0522 818.919 20.6876 818.575 20.6876 817.95V816.721C20.6876 816.403 20.7865 816.137 20.9792 815.929C21.1615 815.71 21.4272 815.596 21.7709 815.596H40.6876C40.9688 815.596 41.198 815.71 41.3751 815.929C41.5417 816.137 41.6251 816.403 41.6251 816.721V818.075C41.6251 818.783 41.2709 819.137 40.5626 819.137ZM31.2292 832.221C32.5626 832.221 33.7865 831.95 34.8959 831.408C36.0105 830.856 36.8907 830.075 37.5417 829.075C38.198 828.075 38.5209 826.908 38.5209 825.575C38.5209 823.533 37.8334 821.95 36.4584 820.825C35.073 819.7 33.3542 819.137 31.3126 819.137C29.9792 819.137 28.7501 819.387 27.6251 819.887C26.5001 820.387 25.6042 821.117 24.9376 822.075C24.2709 823.023 23.9376 824.19 23.9376 825.575C23.9376 826.94 24.2709 828.117 24.9376 829.117C25.6042 830.117 26.4897 830.887 27.5834 831.429C28.6824 831.96 29.8959 832.221 31.2292 832.221Z" fill="#D6DEE6"/>
<path d="M18.2708 773.225C19.5208 773.225 20.7083 773.485 21.8333 773.996C22.9479 774.511 23.9063 775.225 24.7083 776.141C25.4167 774.766 26.4792 773.662 27.8958 772.829C29.3125 771.996 30.849 771.579 32.5 771.579C34.125 771.579 35.625 771.964 37 772.725C38.375 773.49 39.4948 774.532 40.3542 775.85C41.2031 777.173 41.625 778.673 41.625 780.35V794.371C41.625 794.662 41.5417 794.902 41.375 795.079C41.1979 795.261 40.9687 795.35 40.6875 795.35H11.0208C10.3437 795.35 10 795.027 10 794.371V781.808C10 780.183 10.3542 778.725 11.0625 777.433C11.7708 776.141 12.75 775.121 14 774.371C15.25 773.61 16.6771 773.225 18.2708 773.225ZM27.0417 780.391V791.683H38V780.391C38 779.464 37.7448 778.615 37.2292 777.85C36.7188 777.074 36.0417 776.454 35.2083 775.996C34.375 775.527 33.474 775.287 32.5 775.287C31.5417 775.287 30.6563 775.516 29.8333 775.975C29 776.423 28.3281 777.032 27.8125 777.808C27.3021 778.574 27.0417 779.433 27.0417 780.391ZM18.2708 776.975C16.8438 776.975 15.7083 777.433 14.875 778.35C14.0417 779.256 13.625 780.423 13.625 781.85V791.683H23.4167V781.85C23.4167 780.449 22.9167 779.287 21.9167 778.371C20.9063 777.444 19.6875 776.975 18.2708 776.975Z" fill="#D6DEE6"/>
<path d="M31.2291 768.032C29.2187 768.032 27.3749 767.548 25.7083 766.574C24.0416 765.589 22.7239 764.272 21.7499 762.615C20.7655 760.964 20.2708 759.131 20.2708 757.115C20.2708 755.105 20.7655 753.272 21.7499 751.615C22.7239 749.949 24.0416 748.626 25.7083 747.636C27.3749 746.652 29.2187 746.157 31.2291 746.157C33.2447 746.157 35.078 746.652 36.7291 747.636C38.3697 748.626 39.6822 749.949 40.6666 751.615C41.651 753.272 42.1458 755.105 42.1458 757.115C42.1458 759.131 41.651 760.964 40.6666 762.615C39.6822 764.272 38.3697 765.589 36.7291 766.574C35.078 767.548 33.2447 768.032 31.2291 768.032ZM31.2291 764.574C32.5937 764.574 33.8437 764.235 34.9791 763.553C36.1197 762.876 37.0312 761.969 37.7083 760.844C38.3905 759.719 38.7291 758.48 38.7291 757.115C38.7291 755.756 38.3905 754.506 37.7083 753.365C37.0312 752.23 36.1197 751.318 34.9791 750.636C33.8437 749.959 32.5937 749.615 31.2291 749.615C29.8697 749.615 28.6145 749.959 27.4583 750.636C26.3072 751.318 25.3905 752.23 24.7083 753.365C24.0312 754.506 23.6874 755.756 23.6874 757.115C23.6874 758.48 24.0312 759.719 24.7083 760.844C25.3905 761.969 26.3072 762.876 27.4583 763.553C28.6145 764.235 29.8697 764.574 31.2291 764.574Z" fill="#D6DEE6"/>
<path d="M30.625 731.759L40.6875 724.884C40.9687 724.691 41.1667 724.592 41.2917 724.592C41.5156 724.592 41.625 724.821 41.625 725.28V727.842C41.625 728.29 41.3854 728.712 40.8958 729.113L33.4375 733.884L40.8125 738.655C41.3542 739.03 41.625 739.477 41.625 739.988V742.446C41.625 742.936 41.5156 743.175 41.2917 743.175C41.2396 743.175 41.1406 743.144 41 743.071C40.849 743.004 40.7031 742.925 40.5625 742.842L30.625 736.009L21.375 742.321C21.2656 742.379 21.125 742.399 20.9583 742.384C20.7813 742.373 20.6875 742.227 20.6875 741.946V739.3C20.6875 738.957 20.7604 738.691 20.8958 738.509C21.0208 738.332 21.25 738.108 21.5833 737.842L27.8125 733.884L21.5417 729.925C21.2083 729.707 20.9896 729.504 20.875 729.321C20.75 729.128 20.6875 728.858 20.6875 728.509V725.925C20.6875 725.665 20.7813 725.503 20.9583 725.446C21.125 725.394 21.2917 725.42 21.4583 725.53L30.625 731.759Z" fill="#D6DEE6"/>
<path d="M10.8542 652.085C11.9375 651.658 13.3333 651.101 15.0417 650.419C16.7396 649.742 18.5781 648.997 20.5625 648.19C22.5521 647.372 24.5313 646.559 26.5 645.752C28.4583 644.934 30.2604 644.19 31.8958 643.523C33.5208 642.856 34.8229 642.33 35.7917 641.94C34.8229 641.538 33.5208 641.002 31.8958 640.335C30.2604 639.669 28.4531 638.94 26.4792 638.148C24.4948 637.346 22.5156 636.544 20.5417 635.752C18.5729 634.96 16.724 634.221 15 633.523C13.2813 632.815 11.8854 632.252 10.8125 631.835C10.2708 631.575 10 631.169 10 630.627V628.794C10 628.169 10.2448 627.856 10.7292 627.856C10.7865 627.856 10.875 627.877 11 627.919C11.125 627.95 11.2031 627.96 11.2292 627.96L40.7708 640.19C40.9115 640.247 41.0937 640.346 41.3125 640.481C41.5208 640.622 41.625 640.893 41.625 641.294V642.523C41.625 642.815 41.5365 643.059 41.3542 643.252C41.1615 643.45 40.9792 643.575 40.8125 643.627L11.75 655.752C11.6667 655.783 11.5313 655.83 11.3333 655.898C11.125 655.971 10.9115 656.018 10.6875 656.044C10.2292 656.044 10 655.731 10 655.106V653.231C10 652.663 10.2865 652.283 10.8542 652.085Z" fill="#D6DEE6"/>
<path d="M21.625 619.375H40.6875C41.3125 619.375 41.625 619.688 41.625 620.313V622.104C41.625 622.729 41.3125 623.042 40.6875 623.042H21.625C21 623.042 20.6875 622.729 20.6875 622.104V620.313C20.6875 619.688 21 619.375 21.625 619.375ZM14.8125 623.896C14.0781 623.896 13.4479 623.636 12.9167 623.104C12.3906 622.578 12.125 621.948 12.125 621.208C12.125 620.448 12.3906 619.807 12.9167 619.292C13.4479 618.781 14.0781 618.521 14.8125 618.521C15.5208 618.521 16.1406 618.781 16.6667 619.292C17.1979 619.807 17.4583 620.448 17.4583 621.208C17.4583 621.948 17.1979 622.578 16.6667 623.104C16.1406 623.636 15.5208 623.896 14.8125 623.896Z" fill="#D6DEE6"/>
<path d="M31.2291 614.054C29.2187 614.054 27.3749 613.569 25.7083 612.595C24.0416 611.611 22.7239 610.293 21.7499 608.637C20.7655 606.986 20.2708 605.153 20.2708 603.137C20.2708 601.127 20.7655 599.293 21.7499 597.637C22.7239 595.97 24.0416 594.647 25.7083 593.658C27.3749 592.674 29.2187 592.179 31.2291 592.179C33.2447 592.179 35.078 592.674 36.7291 593.658C38.3697 594.647 39.6822 595.97 40.6666 597.637C41.651 599.293 42.1458 601.127 42.1458 603.137C42.1458 605.153 41.651 606.986 40.6666 608.637C39.6822 610.293 38.3697 611.611 36.7291 612.595C35.078 613.569 33.2447 614.054 31.2291 614.054ZM31.2291 610.595C32.5937 610.595 33.8437 610.257 34.9791 609.575C36.1197 608.897 37.0312 607.991 37.7083 606.866C38.3905 605.741 38.7291 604.502 38.7291 603.137C38.7291 601.778 38.3905 600.528 37.7083 599.387C37.0312 598.252 36.1197 597.34 34.9791 596.658C33.8437 595.981 32.5937 595.637 31.2291 595.637C29.8697 595.637 28.6145 595.981 27.4583 596.658C26.3072 597.34 25.3905 598.252 24.7083 599.387C24.0312 600.528 23.6874 601.778 23.6874 603.137C23.6874 604.502 24.0312 605.741 24.7083 606.866C25.3905 607.991 26.3072 608.897 27.4583 609.575C28.6145 610.257 29.8697 610.595 31.2291 610.595Z" fill="#D6DEE6"/>
<path d="M10.9375 582.801H40.6875C41.3125 582.801 41.625 583.114 41.625 583.739V585.53C41.625 586.155 41.3125 586.468 40.6875 586.468H10.9375C10.3125 586.468 10 586.155 10 585.53V583.739C10 583.114 10.3125 582.801 10.9375 582.801Z" fill="#D6DEE6"/>
<path d="M42.1458 567.417C42.1458 569.266 41.651 570.959 40.6666 572.5C39.6822 574.032 38.3697 575.245 36.7291 576.146C35.078 577.037 33.2447 577.48 31.2291 577.48C29.2187 577.48 27.3749 577.037 25.7083 576.146C24.0416 575.245 22.7239 574.032 21.7499 572.5C20.7655 570.959 20.2708 569.266 20.2708 567.417C20.2708 565.683 20.7291 564.094 21.6458 562.646C22.552 561.204 23.7655 560.053 25.2916 559.188C26.8072 558.313 28.4895 557.875 30.3333 557.875H30.8333C31.6978 557.875 32.2395 558.146 32.4583 558.688C32.6822 559.23 32.7916 559.886 32.7916 560.646V573.73C34.4999 573.48 35.8905 572.761 36.9583 571.563C38.0312 570.37 38.5624 568.99 38.5624 567.417C38.5624 566.573 38.4114 565.719 38.1041 564.855C37.7864 563.98 37.3437 563.204 36.7708 562.521C36.5624 562.329 36.4583 562.073 36.4583 561.75C36.4583 561.558 36.552 561.396 36.7291 561.271L38.5208 560.084C38.6353 559.974 38.7603 559.917 38.8958 559.917C39.0937 559.948 39.2655 560.042 39.4166 560.209C39.5572 560.365 39.6666 560.511 39.7499 560.646C40.3749 561.605 40.9322 562.641 41.4166 563.75C41.901 564.865 42.1458 566.084 42.1458 567.417ZM29.6458 573.563V561.5C28.5624 561.667 27.5937 562.053 26.7291 562.646C25.8697 563.245 25.177 563.969 24.6458 564.813C24.1197 565.646 23.8541 566.542 23.8541 567.5C23.8541 568.99 24.427 570.282 25.5624 571.375C26.6874 572.459 28.052 573.188 29.6458 573.563Z" fill="#D6DEE6"/>
<path d="M41.9584 545.969C41.9584 546.094 41.9636 546.208 41.9792 546.302C41.9897 546.401 42.0001 546.521 42.0001 546.656C42.0001 547.573 41.8959 548.438 41.6876 549.24C41.4792 550.047 41.0157 550.698 40.2917 551.198C39.5574 551.698 38.4272 551.948 36.8959 551.948H24.1042V554.51C24.1042 554.844 24.0417 555.109 23.9167 555.302C23.7917 555.484 23.5417 555.573 23.1667 555.573H21.5834C21.224 555.573 20.9897 555.484 20.8751 555.302C20.7501 555.109 20.6876 554.844 20.6876 554.51V551.948H14.6876C14.2292 551.948 13.948 551.708 13.8334 551.219L13.5417 549.052C13.5417 548.708 13.6563 548.484 13.8751 548.385C14.099 548.292 14.3542 548.24 14.6459 548.24H20.6876V545.073C20.6876 544.448 21.0157 544.135 21.6667 544.135H23.0834C23.7657 544.135 24.1042 544.448 24.1042 545.073V548.24H35.5209C36.4949 548.24 37.1876 548.172 37.6042 548.031C38.0105 547.88 38.2605 547.646 38.3542 547.323C38.4376 546.99 38.4949 546.542 38.5209 545.969C38.5209 545.26 38.8751 544.906 39.5834 544.906H40.9376C41.5626 544.906 41.9011 545.26 41.9584 545.969Z" fill="#D6DEE6"/>
<path d="M41.9584 531.987C41.9584 532.112 41.9636 532.227 41.9792 532.32C41.9897 532.419 42.0001 532.539 42.0001 532.675C42.0001 533.591 41.8959 534.456 41.6876 535.258C41.4792 536.065 41.0157 536.716 40.2917 537.216C39.5574 537.716 38.4272 537.966 36.8959 537.966H24.1042V540.529C24.1042 540.862 24.0417 541.128 23.9167 541.32C23.7917 541.503 23.5417 541.591 23.1667 541.591H21.5834C21.224 541.591 20.9897 541.503 20.8751 541.32C20.7501 541.128 20.6876 540.862 20.6876 540.529V537.966H14.6876C14.2292 537.966 13.948 537.727 13.8334 537.237L13.5417 535.07C13.5417 534.727 13.6563 534.503 13.8751 534.404C14.099 534.31 14.3542 534.258 14.6459 534.258H20.6876V531.091C20.6876 530.466 21.0157 530.154 21.6667 530.154H23.0834C23.7657 530.154 24.1042 530.466 24.1042 531.091V534.258H35.5209C36.4949 534.258 37.1876 534.19 37.6042 534.05C38.0105 533.899 38.2605 533.664 38.3542 533.341C38.4376 533.008 38.4949 532.56 38.5209 531.987C38.5209 531.279 38.8751 530.925 39.5834 530.925H40.9376C41.5626 530.925 41.9011 531.279 41.9584 531.987Z" fill="#D6DEE6"/>
<path d="M40.5626 510.381H38.5626C39.5209 511.006 40.3438 511.808 41.0209 512.776C41.698 513.735 42.0417 515.084 42.0417 516.818C42.0417 518.808 41.5626 520.568 40.6042 522.11C39.6355 523.641 38.3334 524.839 36.7084 525.714C35.073 526.578 33.2449 527.006 31.2292 527.006C29.2188 527.006 27.3855 526.578 25.7292 525.714C24.0782 524.839 22.7709 523.641 21.8126 522.11C20.8438 520.568 20.3542 518.808 20.3542 516.818C20.3542 515.058 20.7188 513.703 21.4376 512.756C22.1615 511.797 22.9792 511.006 23.8959 510.381L21.7709 510.214C21.0522 510.162 20.6876 509.818 20.6876 509.193V507.964C20.6876 507.646 20.7865 507.381 20.9792 507.172C21.1615 506.953 21.4272 506.839 21.7709 506.839H40.6876C40.9688 506.839 41.198 506.953 41.3751 507.172C41.5417 507.381 41.6251 507.646 41.6251 507.964V509.318C41.6251 510.026 41.2709 510.381 40.5626 510.381ZM31.2292 523.464C32.5626 523.464 33.7865 523.193 34.8959 522.651C36.0105 522.099 36.8907 521.318 37.5417 520.318C38.198 519.318 38.5209 518.151 38.5209 516.818C38.5209 514.776 37.8334 513.193 36.4584 512.068C35.073 510.943 33.3542 510.381 31.3126 510.381C29.9792 510.381 28.7501 510.631 27.6251 511.131C26.5001 511.631 25.6042 512.36 24.9376 513.318C24.2709 514.266 23.9376 515.433 23.9376 516.818C23.9376 518.183 24.2709 519.36 24.9376 520.36C25.6042 521.36 26.4897 522.131 27.5834 522.672C28.6824 523.203 29.8959 523.464 31.2292 523.464Z" fill="#D6DEE6"/>
<path d="M40.7292 486.593H11.0208C10.3437 486.593 10 486.27 10 485.614V475.864C10 473.614 10.4063 471.53 11.2083 469.614C12.0156 467.697 13.1458 466.025 14.6042 464.593C16.0521 463.15 17.7292 462.025 19.6458 461.218C21.5625 460.416 23.6354 460.01 25.8542 460.01C28.0104 460.01 30.0521 460.421 31.9792 461.239C33.8958 462.062 35.5729 463.197 37 464.655C38.4323 466.103 39.5625 467.78 40.3958 469.697C41.2188 471.614 41.625 473.671 41.625 475.864V485.614C41.625 485.905 41.5625 486.145 41.4375 486.322C41.3125 486.504 41.0781 486.593 40.7292 486.593ZM38 482.926V475.593C38 473.843 37.6615 472.249 36.9792 470.801C36.3021 469.343 35.3854 468.072 34.2292 466.989C33.0781 465.905 31.7604 465.072 30.2708 464.489C28.7708 463.905 27.2187 463.614 25.6042 463.614C23.1875 463.614 21.0833 464.176 19.2917 465.301C17.5 466.426 16.1146 467.921 15.125 469.78C14.125 471.645 13.625 473.671 13.625 475.864V482.926H38Z" fill="#D6DEE6"/>
<path d="M31.2291 456.419C29.2187 456.419 27.3749 455.935 25.7083 454.961C24.0416 453.976 22.7239 452.659 21.7499 451.002C20.7655 449.351 20.2708 447.518 20.2708 445.502C20.2708 443.492 20.7655 441.659 21.7499 440.002C22.7239 438.336 24.0416 437.013 25.7083 436.023C27.3749 435.039 29.2187 434.544 31.2291 434.544C33.2447 434.544 35.078 435.039 36.7291 436.023C38.3697 437.013 39.6822 438.336 40.6666 440.002C41.651 441.659 42.1458 443.492 42.1458 445.502C42.1458 447.518 41.651 449.351 40.6666 451.002C39.6822 452.659 38.3697 453.976 36.7291 454.961C35.078 455.935 33.2447 456.419 31.2291 456.419ZM31.2291 452.961C32.5937 452.961 33.8437 452.622 34.9791 451.94C36.1197 451.263 37.0312 450.356 37.7083 449.231C38.3905 448.106 38.7291 446.867 38.7291 445.502C38.7291 444.143 38.3905 442.893 37.7083 441.752C37.0312 440.617 36.1197 439.705 34.9791 439.023C33.8437 438.346 32.5937 438.002 31.2291 438.002C29.8697 438.002 28.6145 438.346 27.4583 439.023C26.3072 439.705 25.3905 440.617 24.7083 441.752C24.0312 442.893 23.6874 444.143 23.6874 445.502C23.6874 446.867 24.0312 448.106 24.7083 449.231C25.3905 450.356 26.3072 451.263 27.4583 451.94C28.6145 452.622 29.8697 452.961 31.2291 452.961Z" fill="#D6DEE6"/>
<path d="M10.9375 425.167H40.6875C41.3125 425.167 41.625 425.479 41.625 426.104V427.896C41.625 428.521 41.3125 428.833 40.6875 428.833H10.9375C10.3125 428.833 10 428.521 10 427.896V426.104C10 425.479 10.3125 425.167 10.9375 425.167Z" fill="#D6DEE6"/>
<path d="M38.7291 409.137C38.7291 408.293 38.5572 407.428 38.2083 406.553C37.8489 405.668 37.3853 404.897 36.8124 404.241C36.6041 403.991 36.4999 403.736 36.4999 403.47C36.4999 403.251 36.5937 403.095 36.7708 403.012L38.5208 401.762C38.6353 401.678 38.7603 401.637 38.8958 401.637C39.0937 401.637 39.2655 401.73 39.4166 401.908C39.5572 402.074 39.6666 402.23 39.7499 402.366C40.4062 403.314 40.9687 404.355 41.4374 405.491C41.9062 406.616 42.1458 407.835 42.1458 409.137C42.1458 411.168 41.651 413.007 40.6666 414.658C39.6822 416.298 38.3697 417.611 36.7291 418.595C35.078 419.569 33.2447 420.053 31.2291 420.053C29.2187 420.053 27.3749 419.569 25.7083 418.595C24.0416 417.611 22.7239 416.298 21.7499 414.658C20.7655 413.007 20.2708 411.168 20.2708 409.137C20.2708 408.012 20.4478 406.918 20.7916 405.845C21.1249 404.777 21.6874 403.689 22.4791 402.574C22.802 402.132 23.0833 401.908 23.3333 401.908C23.3905 401.908 23.4739 401.918 23.5833 401.928C23.6822 401.944 23.7603 401.98 23.8124 402.033L25.6458 403.178H25.6041C25.7708 403.293 25.8541 403.48 25.8541 403.741C25.8541 403.908 25.7447 404.132 25.5208 404.408C25.0103 405.064 24.578 405.793 24.2291 406.595C23.8697 407.387 23.6874 408.236 23.6874 409.137C23.6874 410.512 24.0312 411.772 24.7083 412.908C25.3905 414.033 26.3072 414.944 27.4583 415.637C28.6145 416.319 29.8697 416.658 31.2291 416.658C32.5937 416.658 33.8437 416.319 34.9791 415.637C36.1197 414.944 37.0312 414.033 37.7083 412.908C38.3905 411.772 38.7291 410.512 38.7291 409.137Z" fill="#D6DEE6"/>
<path d="M10.9375 392.813H23.6458C23.1042 392.37 22.5781 391.75 22.0625 390.958C21.5521 390.156 21.1354 389.287 20.8125 388.354C20.4792 387.412 20.3125 386.516 20.3125 385.667C20.3125 384.016 20.7188 382.594 21.5208 381.396C22.3125 380.203 23.3854 379.281 24.7292 378.625C26.0781 377.974 27.5781 377.646 29.2292 377.646H40.5625C40.8958 377.646 41.1615 377.75 41.3542 377.958C41.5365 378.156 41.625 378.391 41.625 378.667V380.417C41.625 380.792 41.5417 381.042 41.375 381.167C41.1979 381.292 40.9375 381.354 40.6042 381.354H29.2292C27.8021 381.354 26.5729 381.74 25.5417 382.5C24.5 383.266 23.9792 384.557 23.9792 386.375C23.9792 387.292 24.2031 388.24 24.6458 389.208C25.0781 390.167 25.6823 390.99 26.4583 391.667C27.224 392.349 28.0729 392.729 29 392.813H40.6875C41.3125 392.813 41.625 393.125 41.625 393.75V395.5C41.625 396.156 41.3125 396.479 40.6875 396.479H10.9375C10.3125 396.479 10 396.167 10 395.542V393.792C10 393.516 10.0833 393.287 10.25 393.104C10.4167 392.912 10.6458 392.813 10.9375 392.813Z" fill="#D6DEE6"/>
<path d="M42.1458 362.808C42.1458 364.656 41.651 366.349 40.6666 367.891C39.6822 369.422 38.3697 370.636 36.7291 371.537C35.078 372.427 33.2447 372.87 31.2291 372.87C29.2187 372.87 27.3749 372.427 25.7083 371.537C24.0416 370.636 22.7239 369.422 21.7499 367.891C20.7655 366.349 20.2708 364.656 20.2708 362.808C20.2708 361.073 20.7291 359.485 21.6458 358.037C22.552 356.594 23.7655 355.443 25.2916 354.578C26.8072 353.703 28.4895 353.266 30.3333 353.266H30.8333C31.6978 353.266 32.2395 353.537 32.4583 354.078C32.6822 354.62 32.7916 355.276 32.7916 356.037V369.12C34.4999 368.87 35.8905 368.151 36.9583 366.953C38.0312 365.761 38.5624 364.38 38.5624 362.808C38.5624 361.964 38.4114 361.11 38.1041 360.245C37.7864 359.37 37.3437 358.594 36.7708 357.912C36.5624 357.719 36.4583 357.464 36.4583 357.141C36.4583 356.948 36.552 356.787 36.7291 356.662L38.5208 355.474C38.6353 355.365 38.7603 355.308 38.8958 355.308C39.0937 355.339 39.2655 355.433 39.4166 355.599C39.5572 355.755 39.6666 355.901 39.7499 356.037C40.3749 356.995 40.9322 358.031 41.4166 359.141C41.901 360.255 42.1458 361.474 42.1458 362.808ZM29.6458 368.953V356.891C28.5624 357.058 27.5937 357.443 26.7291 358.037C25.8697 358.636 25.177 359.36 24.6458 360.203C24.1197 361.037 23.8541 361.933 23.8541 362.891C23.8541 364.38 24.427 365.672 25.5624 366.766C26.6874 367.849 28.052 368.578 29.6458 368.953Z" fill="#D6DEE6"/>
<path d="M40.2708 251.427V253.094C40.2708 253.427 40.0156 253.708 39.5 253.927L16.4375 263.74L40.6875 266.094C41.3125 266.094 41.625 266.422 41.625 267.073V268.865C41.625 269.49 41.3125 269.802 40.6875 269.802C35.7187 269.292 30.7604 268.776 25.8125 268.26C20.8698 267.75 15.9115 267.234 10.9375 266.719C10.6458 266.719 10.4167 266.625 10.25 266.427C10.0833 266.234 10 265.99 10 265.698V263.052C10 262.609 10.2708 262.297 10.8125 262.115L34.5833 252.24C30.6146 250.589 26.6458 248.943 22.6875 247.302C18.7187 245.651 14.7604 244 10.8125 242.344C10.2708 242.208 10 241.906 10 241.448V238.677C10 238.401 10.0937 238.177 10.2708 238.01C10.4531 237.833 10.6771 237.74 10.9375 237.74L40.6875 234.635C41.3125 234.635 41.625 234.964 41.625 235.615V237.406C41.625 238.031 41.3125 238.344 40.6875 238.344L16.4375 240.719L39.5 250.531C40.0156 250.729 40.2708 251.026 40.2708 251.427Z" fill="#D6DEE6"/>
<path d="M42.1458 220.601C42.1458 222.449 41.651 224.142 40.6666 225.684C39.6822 227.215 38.3697 228.429 36.7291 229.33C35.078 230.22 33.2447 230.663 31.2291 230.663C29.2187 230.663 27.3749 230.22 25.7083 229.33C24.0416 228.429 22.7239 227.215 21.7499 225.684C20.7655 224.142 20.2708 222.449 20.2708 220.601C20.2708 218.866 20.7291 217.278 21.6458 215.83C22.552 214.387 23.7655 213.236 25.2916 212.371C26.8072 211.496 28.4895 211.059 30.3333 211.059H30.8333C31.6978 211.059 32.2395 211.33 32.4583 211.871C32.6822 212.413 32.7916 213.069 32.7916 213.83V226.913C34.4999 226.663 35.8905 225.944 36.9583 224.746C38.0312 223.554 38.5624 222.173 38.5624 220.601C38.5624 219.757 38.4114 218.903 38.1041 218.038C37.7864 217.163 37.3437 216.387 36.7708 215.705C36.5624 215.512 36.4583 215.257 36.4583 214.934C36.4583 214.741 36.552 214.58 36.7291 214.455L38.5208 213.267C38.6353 213.158 38.7603 213.101 38.8958 213.101C39.0937 213.132 39.2655 213.226 39.4166 213.392C39.5572 213.548 39.6666 213.694 39.7499 213.83C40.3749 214.788 40.9322 215.824 41.4166 216.934C41.901 218.048 42.1458 219.267 42.1458 220.601ZM29.6458 226.746V214.684C28.5624 214.851 27.5937 215.236 26.7291 215.83C25.8697 216.429 25.177 217.153 24.6458 217.996C24.1197 218.83 23.8541 219.726 23.8541 220.684C23.8541 222.173 24.427 223.465 25.5624 224.559C26.6874 225.642 28.052 226.371 29.6458 226.746Z" fill="#D6DEE6"/>
<path d="M41.9584 199.152C41.9584 199.277 41.9636 199.392 41.9792 199.486C41.9897 199.584 42.0001 199.704 42.0001 199.84C42.0001 200.756 41.8959 201.621 41.6876 202.423C41.4792 203.23 41.0157 203.881 40.2917 204.381C39.5574 204.881 38.4272 205.131 36.8959 205.131H24.1042V207.694C24.1042 208.027 24.0417 208.293 23.9167 208.486C23.7917 208.668 23.5417 208.756 23.1667 208.756H21.5834C21.224 208.756 20.9897 208.668 20.8751 208.486C20.7501 208.293 20.6876 208.027 20.6876 207.694V205.131H14.6876C14.2292 205.131 13.948 204.892 13.8334 204.402L13.5417 202.236C13.5417 201.892 13.6563 201.668 13.8751 201.569C14.099 201.475 14.3542 201.423 14.6459 201.423H20.6876V198.256C20.6876 197.631 21.0157 197.319 21.6667 197.319H23.0834C23.7657 197.319 24.1042 197.631 24.1042 198.256V201.423H35.5209C36.4949 201.423 37.1876 201.355 37.6042 201.215C38.0105 201.064 38.2605 200.829 38.3542 200.506C38.4376 200.173 38.4949 199.725 38.5209 199.152C38.5209 198.444 38.8751 198.09 39.5834 198.09H40.9376C41.5626 198.09 41.9011 198.444 41.9584 199.152Z" fill="#D6DEE6"/>
<path d="M40.5626 177.545H38.5626C39.5209 178.17 40.3438 178.972 41.0209 179.941C41.698 180.899 42.0417 182.248 42.0417 183.983C42.0417 185.972 41.5626 187.733 40.6042 189.274C39.6355 190.806 38.3334 192.004 36.7084 192.879C35.073 193.743 33.2449 194.17 31.2292 194.17C29.2188 194.17 27.3855 193.743 25.7292 192.879C24.0782 192.004 22.7709 190.806 21.8126 189.274C20.8438 187.733 20.3542 185.972 20.3542 183.983C20.3542 182.222 20.7188 180.868 21.4376 179.92C22.1615 178.962 22.9792 178.17 23.8959 177.545L21.7709 177.379C21.0522 177.327 20.6876 176.983 20.6876 176.358V175.129C20.6876 174.811 20.7865 174.545 20.9792 174.337C21.1615 174.118 21.4272 174.004 21.7709 174.004H40.6876C40.9688 174.004 41.198 174.118 41.3751 174.337C41.5417 174.545 41.6251 174.811 41.6251 175.129V176.483C41.6251 177.191 41.2709 177.545 40.5626 177.545ZM31.2292 190.629C32.5626 190.629 33.7865 190.358 34.8959 189.816C36.0105 189.264 36.8907 188.483 37.5417 187.483C38.198 186.483 38.5209 185.316 38.5209 183.983C38.5209 181.941 37.8334 180.358 36.4584 179.233C35.073 178.108 33.3542 177.545 31.3126 177.545C29.9792 177.545 28.7501 177.795 27.6251 178.295C26.5001 178.795 25.6042 179.524 24.9376 180.483C24.2709 181.431 23.9376 182.597 23.9376 183.983C23.9376 185.347 24.2709 186.524 24.9376 187.524C25.6042 188.524 26.4897 189.295 27.5834 189.837C28.6824 190.368 29.8959 190.629 31.2292 190.629Z" fill="#D6DEE6"/>
<path d="M18.2708 131.633C19.5208 131.633 20.7083 131.893 21.8333 132.403C22.9479 132.919 23.9063 133.633 24.7083 134.549C25.4167 133.174 26.4792 132.07 27.8958 131.237C29.3125 130.403 30.849 129.987 32.5 129.987C34.125 129.987 35.625 130.372 37 131.133C38.375 131.898 39.4948 132.94 40.3542 134.258C41.2031 135.581 41.625 137.081 41.625 138.758V152.778C41.625 153.07 41.5417 153.31 41.375 153.487C41.1979 153.669 40.9687 153.758 40.6875 153.758H11.0208C10.3437 153.758 10 153.435 10 152.778V140.216C10 138.591 10.3542 137.133 11.0625 135.841C11.7708 134.549 12.75 133.528 14 132.778C15.25 132.018 16.6771 131.633 18.2708 131.633ZM27.0417 138.799V150.091H38V138.799C38 137.872 37.7448 137.023 37.2292 136.258C36.7188 135.482 36.0417 134.862 35.2083 134.403C34.375 133.935 33.474 133.695 32.5 133.695C31.5417 133.695 30.6563 133.924 29.8333 134.383C29 134.831 28.3281 135.44 27.8125 136.216C27.3021 136.982 27.0417 137.841 27.0417 138.799ZM18.2708 135.383C16.8438 135.383 15.7083 135.841 14.875 136.758C14.0417 137.664 13.625 138.831 13.625 140.258V150.091H23.4167V140.258C23.4167 138.857 22.9167 137.695 21.9167 136.778C20.9063 135.851 19.6875 135.383 18.2708 135.383Z" fill="#D6DEE6"/>
<path d="M31.2291 126.44C29.2187 126.44 27.3749 125.956 25.7083 124.982C24.0416 123.997 22.7239 122.68 21.7499 121.023C20.7655 119.372 20.2708 117.539 20.2708 115.523C20.2708 113.513 20.7655 111.68 21.7499 110.023C22.7239 108.357 24.0416 107.034 25.7083 106.044C27.3749 105.06 29.2187 104.565 31.2291 104.565C33.2447 104.565 35.078 105.06 36.7291 106.044C38.3697 107.034 39.6822 108.357 40.6666 110.023C41.651 111.68 42.1458 113.513 42.1458 115.523C42.1458 117.539 41.651 119.372 40.6666 121.023C39.6822 122.68 38.3697 123.997 36.7291 124.982C35.078 125.956 33.2447 126.44 31.2291 126.44ZM31.2291 122.982C32.5937 122.982 33.8437 122.643 34.9791 121.961C36.1197 121.284 37.0312 120.377 37.7083 119.252C38.3905 118.127 38.7291 116.888 38.7291 115.523C38.7291 114.164 38.3905 112.914 37.7083 111.773C37.0312 110.638 36.1197 109.726 34.9791 109.044C33.8437 108.367 32.5937 108.023 31.2291 108.023C29.8697 108.023 28.6145 108.367 27.4583 109.044C26.3072 109.726 25.3905 110.638 24.7083 111.773C24.0312 112.914 23.6874 114.164 23.6874 115.523C23.6874 116.888 24.0312 118.127 24.7083 119.252C25.3905 120.377 26.3072 121.284 27.4583 121.961C28.6145 122.643 29.8697 122.982 31.2291 122.982Z" fill="#D6DEE6"/>
<path d="M30.625 90.1667L40.6875 83.2917C40.9687 83.099 41.1667 83 41.2917 83C41.5156 83 41.625 83.2292 41.625 83.6875V86.25C41.625 86.6979 41.3854 87.1198 40.8958 87.5208L33.4375 92.2917L40.8125 97.0625C41.3542 97.4375 41.625 97.8854 41.625 98.3958V100.854C41.625 101.344 41.5156 101.583 41.2917 101.583C41.2396 101.583 41.1406 101.552 41 101.479C40.849 101.411 40.7031 101.333 40.5625 101.25L30.625 94.4167L21.375 100.729C21.2656 100.786 21.125 100.807 20.9583 100.792C20.7813 100.781 20.6875 100.635 20.6875 100.354V97.7083C20.6875 97.3646 20.7604 97.099 20.8958 96.9167C21.0208 96.7396 21.25 96.5156 21.5833 96.25L27.8125 92.2917L21.5417 88.3333C21.2083 88.1146 20.9896 87.9115 20.875 87.7292C20.75 87.5365 20.6875 87.2656 20.6875 86.9167V84.3333C20.6875 84.0729 20.7813 83.9115 20.9583 83.8542C21.125 83.8021 21.2917 83.8281 21.4583 83.9375L30.625 90.1667Z" fill="#D6DEE6"/>
</svg>
