<svg width="258" height="1012" viewBox="0 0 258 1012" fill="none" xmlns="http://www.w3.org/2000/svg">
<g clip-path="url(#clip0_76_3712)">
<path d="M179.278 916.174C183.737 916.174 187.903 917.002 191.778 918.653C195.643 920.294 199.059 922.486 202.028 925.236C205.002 922.486 208.424 920.294 212.299 918.653C216.164 917.002 220.32 916.174 224.778 916.174C230.82 916.174 236.336 917.663 241.32 920.632C246.294 923.606 250.268 927.611 253.237 932.653C256.211 937.684 257.695 943.215 257.695 949.257V1011.28H146.362V949.257C146.362 943.215 147.851 937.684 150.82 932.653C153.794 927.611 157.773 923.606 162.757 920.632C167.731 917.663 173.237 916.174 179.278 916.174ZM224.778 920.465C217.143 920.465 210.518 923.122 204.903 928.424L202.028 931.132L199.174 928.424C193.549 923.122 186.919 920.465 179.278 920.465C174.086 920.465 169.315 921.768 164.966 924.361C160.622 926.96 157.148 930.434 154.549 934.778C151.955 939.127 150.653 943.955 150.653 949.257V1006.99H253.403V949.257C253.403 943.955 252.106 939.127 249.507 934.778C246.914 930.434 243.44 926.96 239.091 924.361C234.747 921.768 229.976 920.465 224.778 920.465ZM162.757 949.257C162.757 944.705 164.377 940.778 167.612 937.486C170.836 934.195 174.726 932.549 179.278 932.549C183.945 932.549 187.898 934.195 191.132 937.486C194.372 940.778 195.987 944.705 195.987 949.257V994.903H162.757V949.257ZM191.695 949.257C191.695 945.872 190.502 942.96 188.112 940.528C185.726 938.085 182.778 936.861 179.278 936.861C175.893 936.861 173.007 938.085 170.632 940.528C168.247 942.96 167.049 945.872 167.049 949.257V990.757H191.695V949.257ZM208.07 949.257C208.07 944.705 209.69 940.778 212.924 937.486C216.164 934.195 220.112 932.549 224.778 932.549C229.336 932.549 233.231 934.195 236.466 937.486C239.705 940.778 241.32 944.705 241.32 949.257V994.903H208.07V949.257ZM237.028 949.257C237.028 945.872 235.836 942.96 233.445 940.528C231.059 938.085 228.169 936.861 224.778 936.861C221.278 936.861 218.336 938.085 215.945 940.528C213.559 942.96 212.362 945.872 212.362 949.257V990.757H237.028V949.257Z" fill="#49688D"/>
<path d="M171.174 869.117C171.174 863.075 172.294 857.461 174.528 852.263C176.752 847.07 179.851 842.487 183.82 838.513C187.794 834.528 192.403 831.424 197.653 829.2C202.903 826.981 208.502 825.867 214.445 825.867C220.377 825.867 225.966 826.981 231.216 829.2C236.466 831.424 241.08 834.528 245.049 838.513C249.023 842.487 252.127 847.07 254.362 852.263C256.586 857.461 257.695 863.075 257.695 869.117V920.804H146.362V900.284H171.174V869.117ZM253.403 869.117C253.403 861.909 251.653 855.367 248.153 849.492C244.653 843.606 239.966 838.882 234.091 835.325C228.205 831.773 221.653 829.992 214.445 829.992C207.226 829.992 200.674 831.773 194.799 835.325C188.914 838.882 184.216 843.606 180.716 849.492C177.216 855.367 175.466 861.909 175.466 869.117V904.429H150.653V916.513H253.403V869.117ZM187.549 869.117C187.549 864.132 188.747 859.606 191.132 855.534C193.523 851.45 196.757 848.19 200.841 845.742C204.924 843.299 209.461 842.075 214.445 842.075C219.419 842.075 223.924 843.299 227.966 845.742C231.997 848.19 235.231 851.45 237.674 855.534C240.106 859.606 241.32 864.132 241.32 869.117V904.429H187.549V869.117ZM237.174 869.117C237.174 864.882 236.143 861.044 234.07 857.596C232.002 854.153 229.247 851.424 225.799 849.409C222.356 847.398 218.57 846.388 214.445 846.388C210.309 846.388 206.518 847.398 203.07 849.409C199.627 851.424 196.872 854.153 194.799 857.596C192.731 861.044 191.695 864.882 191.695 869.117V900.284H237.174V869.117ZM146.362 817.429V796.763H257.695V817.429H146.362ZM253.403 801.054H150.653V813.138H253.403V801.054Z" fill="#49688D"/>
<path d="M146.362 759.574V664.637H257.695V685.158H167.049V739.053H257.695V759.574H146.362ZM253.403 668.762H150.653V755.283H253.403V743.199H162.757V680.845H253.403V668.762Z" fill="#49688D"/>
<path d="M162.757 613.593C162.757 606.385 164.539 599.817 168.091 593.885C171.632 587.942 176.377 583.197 182.32 579.655C188.252 576.103 194.82 574.322 202.028 574.322C209.237 574.322 215.815 576.103 221.757 579.655C227.69 583.197 232.434 587.942 235.987 593.885C239.544 599.817 241.32 606.385 241.32 613.593C241.32 620.801 239.544 627.379 235.987 633.322C232.434 639.254 227.69 643.999 221.757 647.551C215.815 651.109 209.237 652.885 202.028 652.885C194.82 652.885 188.252 651.109 182.32 647.551C176.377 643.999 171.632 639.254 168.091 633.322C164.539 627.379 162.757 620.801 162.757 613.593ZM237.174 613.593C237.174 607.135 235.586 601.254 232.403 595.947C229.226 590.645 224.987 586.426 219.695 583.301C214.393 580.176 208.502 578.614 202.028 578.614C195.559 578.614 189.674 580.176 184.382 583.301C179.08 586.426 174.862 590.645 171.737 595.947C168.612 601.254 167.049 607.135 167.049 613.593C167.049 620.067 168.612 625.958 171.737 631.26C174.862 636.551 179.08 640.791 184.382 643.968C189.674 647.15 195.559 648.739 202.028 648.739C208.502 648.739 214.393 647.15 219.695 643.968C224.987 640.791 229.226 636.551 232.403 631.26C235.586 625.958 237.174 620.067 237.174 613.593ZM146.362 613.593C146.362 605.859 147.794 598.65 150.653 591.968C153.518 585.291 157.523 579.379 162.674 574.239C167.815 569.103 173.752 565.103 180.487 562.239C187.211 559.364 194.393 557.926 202.028 557.926C209.669 557.926 216.856 559.364 223.591 562.239C230.315 565.103 236.252 569.103 241.403 574.239C246.544 579.379 250.544 585.291 253.403 591.968C256.268 598.65 257.695 605.859 257.695 613.593C257.695 621.234 256.268 628.421 253.403 635.155C250.544 641.895 246.544 647.833 241.403 652.968C236.252 658.109 230.315 662.109 223.591 664.968C216.856 667.833 209.669 669.26 202.028 669.26C194.393 669.26 187.211 667.833 180.487 664.968C173.752 662.109 167.815 658.109 162.674 652.968C157.523 647.833 153.518 641.895 150.653 635.155C147.794 628.421 146.362 621.234 146.362 613.593ZM253.403 613.593C253.403 606.499 252.08 599.853 249.424 593.655C246.773 587.447 243.091 581.984 238.382 577.26C233.664 572.541 228.205 568.859 222.007 566.218C215.799 563.567 209.143 562.239 202.028 562.239C194.934 562.239 188.278 563.567 182.07 566.218C175.862 568.859 170.403 572.541 165.695 577.26C160.976 581.984 157.289 587.447 154.632 593.655C151.981 599.853 150.653 606.499 150.653 613.593C150.653 620.708 151.981 627.364 154.632 633.572C157.289 639.77 160.976 645.228 165.695 649.947C170.403 654.655 175.862 658.338 182.07 660.989C188.278 663.645 194.934 664.968 202.028 664.968C209.143 664.968 215.799 663.645 222.007 660.989C228.205 658.338 233.664 654.655 238.382 649.947C243.091 645.228 246.773 639.77 249.424 633.572C252.08 627.364 253.403 620.708 253.403 613.593Z" fill="#49688D"/>
<path d="M146.362 504.213L257.695 467.463V489.255L179.278 515.025L257.695 540.942V562.567L146.362 525.838V504.213ZM178.007 511.046L253.403 486.067V473.359L150.653 507.234V522.817L253.403 556.692V543.963L178.007 519.15L165.612 515.025L178.007 511.046Z" fill="#49688D"/>
<path d="M146.362 399.26V377.156L238.132 413.885L241.799 415.49L257.695 421.677V443.948L237.028 435.677L146.362 472.094V449.823L209.507 424.552L146.362 399.26ZM236.549 417.865L150.653 383.344V396.385L211.091 420.573L220.799 424.552L211.091 428.531L150.653 452.865V465.74L235.424 431.698L237.028 431.073L238.612 431.698L253.403 437.74V424.698L240.195 419.302L238.445 418.656L236.549 417.865Z" fill="#49688D"/>
<path d="M146.362 307.362V286.841H257.695V307.362H233.049V334.237C233.049 340.81 231.809 346.956 229.32 352.675C226.82 358.399 223.398 363.461 219.049 367.862C214.705 372.268 209.669 375.69 203.945 378.133C198.211 380.565 192.059 381.779 185.487 381.779H146.362V361.112H185.487C190.362 361.112 194.841 359.919 198.924 357.529C203.007 355.143 206.273 351.904 208.716 347.82C211.148 343.737 212.362 339.211 212.362 334.237V307.362H146.362ZM253.403 290.966H150.653V303.216H216.653V334.237C216.653 339.961 215.252 345.185 212.445 349.904C209.643 354.612 205.877 358.378 201.153 361.195C196.434 364.003 191.211 365.404 185.487 365.404H150.653V377.487H185.487C191.434 377.487 197.028 376.378 202.278 374.154C207.518 371.935 212.101 368.836 216.028 364.862C219.945 360.878 223.049 356.258 225.341 351.008C227.622 345.758 228.757 340.169 228.757 334.237V303.216H253.403V290.966Z" fill="#49688D"/>
<path d="M146.362 220.86V196.527H257.695V217.048H178.82L202.028 231.819L221.278 243.923L257.695 267.131V291.464H146.362V270.944H225.257L202.028 256.152L182.778 243.923L146.362 220.86ZM253.403 200.652H150.653V218.464L185.007 240.423L204.257 252.506L227.487 267.298L239.882 275.089H150.653V287.173H253.403V269.36L219.049 247.569L199.799 235.319L176.591 220.694L164.174 212.735H253.403V200.652Z" fill="#49688D"/>
<path d="M146.362 201.15V106.212H167.049V143.421H257.695V163.942H167.049V201.15H146.362ZM162.757 110.337H150.653V196.858H162.757V159.65H253.403V147.567H162.757V110.337Z" fill="#49688D"/>
<path d="M167.049 15.8979V90.3146H191.695V36.4188H212.362V90.3146H237.174V15.8979H257.695V110.835H146.362V15.8979H167.049ZM195.987 40.7104V94.4604H162.757V20.0229H150.653V106.544H253.403V20.0229H241.32V94.4604H208.07V40.7104H195.987Z" fill="#49688D"/>
<path d="M176.257 20.5208V0H196.945V20.5208H176.257ZM192.653 4.14583H180.57V16.2292H192.653V4.14583ZM227.799 20.5208H207.111V0H227.799V20.5208ZM211.424 16.2292H223.507V4.14583H211.424V16.2292Z" fill="#49688D"/>
<path d="M0.4375 1003.97V984.863C0.4375 984.363 0.697916 984.113 1.20833 984.113H3.41667C3.93229 984.113 4.1875 984.379 4.1875 984.905V1000.9H12.9167V991.259C12.9167 989.358 13.3906 987.665 14.3333 986.176C15.2656 984.691 16.4792 983.52 17.9792 982.655C19.4792 981.796 21.1198 981.363 22.8958 981.363C24.7188 981.363 26.3906 981.801 27.9167 982.676C29.4323 983.551 30.6458 984.749 31.5625 986.259C32.4792 987.759 32.9375 989.467 32.9375 991.384V1003.97C32.9375 1004.44 32.7188 1004.68 32.2708 1004.68H1.125C0.958333 1004.68 0.807292 1004.63 0.666667 1004.53C0.515625 1004.42 0.4375 1004.23 0.4375 1003.97ZM22.9583 985.134C21.849 985.134 20.8125 985.421 19.8542 985.988C18.8854 986.561 18.1042 987.316 17.5208 988.259C16.9375 989.207 16.6458 990.249 16.6458 991.384V1000.9H29.25V991.384C29.25 990.217 28.9531 989.165 28.3542 988.217C27.7604 987.275 26.9792 986.525 26.0208 985.967C25.0521 985.415 24.0312 985.134 22.9583 985.134Z" fill="#49688D"/>
<path d="M0 956.521C0 954.219 0.432292 952.058 1.29167 950.042C2.15625 948.032 3.34896 946.261 4.875 944.729C6.40625 943.188 8.1875 941.979 10.2292 941.104C12.2604 940.229 14.4375 939.792 16.7708 939.792C19.0781 939.792 21.2396 940.224 23.25 941.084C25.2656 941.948 27.0365 943.157 28.5625 944.709C30.0781 946.25 31.2656 948.032 32.125 950.042C32.9844 952.058 33.4167 954.229 33.4167 956.563C33.4167 958.87 32.9844 961.037 32.125 963.063C31.2656 965.078 30.0729 966.849 28.5417 968.375C27 969.907 25.224 971.099 23.2083 971.959C21.1979 972.823 19.0365 973.25 16.7292 973.25C14.4271 973.25 12.2604 972.823 10.2292 971.959C8.1875 971.099 6.40625 969.907 4.875 968.375C3.34896 966.849 2.15625 965.073 1.29167 963.042C0.432292 961 0 958.828 0 956.521ZM16.6875 969.459C18.4688 969.459 20.1458 969.125 21.7292 968.459C23.3021 967.782 24.6823 966.854 25.875 965.688C27.0573 964.521 27.9792 963.146 28.6458 961.563C29.3125 959.979 29.6458 958.302 29.6458 956.521C29.6458 954.745 29.3125 953.084 28.6458 951.542C27.9792 949.99 27.0573 948.62 25.875 947.438C24.6823 946.261 23.3021 945.334 21.7292 944.667C20.1458 943.99 18.4688 943.646 16.6875 943.646C14.9115 943.646 13.25 943.99 11.7083 944.667C10.1562 945.334 8.78646 946.261 7.60417 947.438C6.41146 948.62 5.47917 949.99 4.8125 951.542C4.14583 953.084 3.8125 954.745 3.8125 956.521C3.8125 958.302 4.14583 959.979 4.8125 961.563C5.47917 963.146 6.41146 964.521 7.60417 965.688C8.78646 966.854 10.1562 967.782 11.7083 968.459C13.25 969.125 14.9115 969.459 16.6875 969.459Z" fill="#49688D"/>
<path d="M14.0208 906.754H1.39583C1.13542 906.754 0.911459 906.671 0.729167 906.504C0.536459 906.327 0.4375 906.088 0.4375 905.796V904.004C0.4375 903.744 0.531249 903.504 0.708333 903.296C0.875 903.088 1.10417 902.983 1.39583 902.983H31.9792C32.6198 902.983 32.9375 903.327 32.9375 904.004V905.796C32.9375 906.437 32.6198 906.754 31.9792 906.754H17.7292V926.129H31.9792C32.6198 926.129 32.9375 926.478 32.9375 927.171V928.921C32.9375 929.577 32.6198 929.9 31.9792 929.9H1.39583C1.13542 929.9 0.911459 929.812 0.729167 929.629C0.536459 929.452 0.4375 929.213 0.4375 928.921V927.129C0.4375 926.869 0.536459 926.64 0.729167 926.442C0.911459 926.233 1.13542 926.129 1.39583 926.129H14.0208V906.754Z" fill="#49688D"/>
<path d="M33.1667 892.054C33.1667 892.611 32.8542 892.887 32.2292 892.887H30.3125C30.0781 892.887 29.8854 892.835 29.7292 892.72C29.5625 892.595 29.4792 892.418 29.4792 892.179C29.4792 891.335 29.2396 890.611 28.75 890.012C28.2656 889.418 27.2656 888.814 25.75 888.2L21.5417 886.491L1.35417 894.804L1.39583 894.762C1.39583 894.762 1.32813 894.778 1.1875 894.804C1.03646 894.835 0.932292 894.845 0.875 894.845C0.541667 894.845 0.375 894.595 0.375 894.095V891.783C0.375 891.314 0.614583 890.991 1.08333 890.825C3.51563 889.825 6.16667 888.793 9.04167 887.72C11.9167 886.637 14.6562 885.569 17.25 884.512L0.958333 878.241H1C0.583333 878.075 0.375 877.741 0.375 877.241V875.012C0.375 874.46 0.614583 874.179 1.08333 874.179H1.35417L2.35417 874.554H2.3125C4.85417 875.611 7.51563 876.715 10.2917 877.866C13.0729 879.022 15.7813 880.132 18.4167 881.2C21.0573 882.272 23.4896 883.257 25.7083 884.158C27.0573 884.689 28.2917 885.257 29.4167 885.866C30.5417 886.481 31.4531 887.262 32.1458 888.22C32.8281 889.168 33.1667 890.444 33.1667 892.054Z" fill="#49688D"/>
<path d="M3.27083 840.881C3.51042 840.496 3.76042 840.298 4.02083 840.298C4.13542 840.298 4.26563 840.34 4.41667 840.423C4.55729 840.496 4.67708 840.558 4.77083 840.61L6.20833 841.527C6.55729 841.793 6.72917 842.043 6.72917 842.277C6.70313 842.36 6.66667 842.475 6.625 842.61C6.58333 842.735 6.51042 842.892 6.39583 843.069C5.60417 844.152 4.98958 845.36 4.54167 846.694C4.08333 848.017 3.85417 849.35 3.85417 850.694C3.85417 852.626 4.19792 854.392 4.875 855.985C5.55729 857.569 6.51042 858.938 7.72917 860.09C8.9375 861.246 10.3229 862.147 11.875 862.798C13.4167 863.438 15.0521 863.756 16.7708 863.756C18.5781 863.756 20.2656 863.412 21.8333 862.715C23.3906 862.006 24.7604 861.043 25.9375 859.819C27.1042 858.584 28.0156 857.194 28.6667 855.652C29.3229 854.1 29.6458 852.475 29.6458 850.777C29.6458 849.668 29.5 848.563 29.2083 847.465C28.9167 846.371 28.375 845.183 27.5833 843.902C27.4479 843.61 27.25 843.319 27 843.027C26.75 842.735 26.625 842.485 26.625 842.277C26.625 842.017 26.8021 841.767 27.1458 841.527L28.8125 840.527C29.0208 840.444 29.2292 840.402 29.4375 840.402C29.7604 840.402 30.0104 840.563 30.1875 840.881C31.1771 842.256 31.9583 843.787 32.5417 845.465C33.125 847.131 33.4167 848.933 33.4167 850.86C33.4167 853.168 32.9844 855.334 32.125 857.36C31.2656 859.376 30.0729 861.147 28.5417 862.673C27 864.204 25.224 865.397 23.2083 866.256C21.1979 867.121 19.0365 867.548 16.7292 867.548C14.4271 867.548 12.2604 867.121 10.2292 866.256C8.1875 865.397 6.40625 864.204 4.875 862.673C3.34896 861.147 2.15625 859.371 1.29167 857.34C0.432292 855.298 0 853.126 0 850.819C0 848.985 0.286459 847.23 0.854167 845.548C1.42708 843.871 2.22917 842.313 3.27083 840.881Z" fill="#49688D"/>
<path d="M31.8958 830.68H1.39583C0.760417 830.68 0.4375 830.357 0.4375 829.701V827.867C0.4375 827.232 0.760417 826.909 1.39583 826.909H12.6875V818.659C12.6875 816.773 13.1615 815.076 14.1042 813.576C15.0365 812.065 16.2656 810.867 17.7917 809.992C19.3073 809.117 20.9688 808.68 22.7708 808.68C24.6198 808.68 26.3073 809.128 27.8333 810.013C29.3646 810.904 30.599 812.112 31.5417 813.638C32.474 815.154 32.9375 816.878 32.9375 818.805V829.659C32.9375 830.341 32.5938 830.68 31.8958 830.68ZM22.8125 812.451C21.6771 812.451 20.625 812.742 19.6667 813.326C18.6979 813.909 17.9115 814.68 17.3125 815.638C16.7188 816.586 16.4167 817.638 16.4167 818.805V826.909H29.2083V818.805C29.2083 817.612 28.9115 816.544 28.3125 815.596C27.7188 814.638 26.9323 813.878 25.9583 813.305C24.974 812.737 23.9271 812.451 22.8125 812.451ZM1.39583 800.492H31.9792C32.6198 800.492 32.9375 800.826 32.9375 801.492V803.284C32.9375 803.966 32.6198 804.305 31.9792 804.305H1.39583C0.760417 804.305 0.4375 803.966 0.4375 803.284V801.492C0.4375 800.826 0.760417 800.492 1.39583 800.492Z" fill="#49688D"/>
<path d="M38.5 747.302H32.9375V769.26H38.5417C38.9844 769.26 39.2083 769.51 39.2083 770.01V772.281C39.2083 772.781 38.9844 773.031 38.5417 773.031H29.9583C29.4323 773.031 29.1667 772.781 29.1667 772.281V770.781C26.125 768.838 22.9792 767.437 19.7292 766.572C16.4688 765.697 13.0417 765.25 9.45833 765.218H1.16667C0.682292 765.218 0.4375 764.979 0.4375 764.489V747.968C0.4375 747.791 0.494792 747.625 0.604167 747.468C0.718751 747.302 0.890625 747.218 1.125 747.218H29.1667V744.281C29.1667 744.114 29.2292 743.947 29.3542 743.781C29.4688 743.614 29.6406 743.531 29.875 743.531H38.5C38.9688 743.531 39.2083 743.781 39.2083 744.281V746.614C39.2083 747.072 38.9688 747.302 38.5 747.302ZM4.1875 761.406H9.45833C12.9323 761.406 16.3281 761.854 19.6458 762.739C22.9531 763.614 26.125 764.838 29.1667 766.406V750.989H4.1875V761.406Z" fill="#49688D"/>
<path d="M0 719.84C0 717.537 0.432292 715.376 1.29167 713.36C2.15625 711.35 3.34896 709.579 4.875 708.048C6.40625 706.506 8.1875 705.298 10.2292 704.423C12.2604 703.548 14.4375 703.11 16.7708 703.11C19.0781 703.11 21.2396 703.543 23.25 704.402C25.2656 705.267 27.0365 706.475 28.5625 708.027C30.0781 709.569 31.2656 711.35 32.125 713.36C32.9844 715.376 33.4167 717.548 33.4167 719.881C33.4167 722.188 32.9844 724.355 32.125 726.381C31.2656 728.397 30.0729 730.168 28.5417 731.694C27 733.225 25.224 734.418 23.2083 735.277C21.1979 736.142 19.0365 736.569 16.7292 736.569C14.4271 736.569 12.2604 736.142 10.2292 735.277C8.1875 734.418 6.40625 733.225 4.875 731.694C3.34896 730.168 2.15625 728.392 1.29167 726.36C0.432292 724.319 0 722.147 0 719.84ZM16.6875 732.777C18.4688 732.777 20.1458 732.444 21.7292 731.777C23.3021 731.1 24.6823 730.173 25.875 729.006C27.0573 727.84 27.9792 726.465 28.6458 724.881C29.3125 723.298 29.6458 721.621 29.6458 719.84C29.6458 718.063 29.3125 716.402 28.6458 714.86C27.9792 713.308 27.0573 711.938 25.875 710.756C24.6823 709.579 23.3021 708.652 21.7292 707.985C20.1458 707.308 18.4688 706.965 16.6875 706.965C14.9115 706.965 13.25 707.308 11.7083 707.985C10.1562 708.652 8.78646 709.579 7.60417 710.756C6.41146 711.938 5.47917 713.308 4.8125 714.86C4.14583 716.402 3.8125 718.063 3.8125 719.84C3.8125 721.621 4.14583 723.298 4.8125 724.881C5.47917 726.465 6.41146 727.84 7.60417 729.006C8.78646 730.173 10.1562 731.1 11.7083 731.777C13.25 732.444 14.9115 732.777 16.6875 732.777Z" fill="#49688D"/>
<path d="M3.27083 668.156C3.51042 667.77 3.76042 667.572 4.02083 667.572C4.13542 667.572 4.26563 667.614 4.41667 667.697C4.55729 667.77 4.67708 667.833 4.77083 667.885L6.20833 668.801C6.55729 669.067 6.72917 669.317 6.72917 669.551C6.70313 669.635 6.66667 669.749 6.625 669.885C6.58333 670.01 6.51042 670.166 6.39583 670.343C5.60417 671.426 4.98958 672.635 4.54167 673.968C4.08333 675.291 3.85417 676.624 3.85417 677.968C3.85417 679.9 4.19792 681.666 4.875 683.26C5.55729 684.843 6.51042 686.213 7.72917 687.364C8.9375 688.52 10.3229 689.421 11.875 690.072C13.4167 690.713 15.0521 691.031 16.7708 691.031C18.5781 691.031 20.2656 690.687 21.8333 689.989C23.3906 689.281 24.7604 688.317 25.9375 687.093C27.1042 685.859 28.0156 684.468 28.6667 682.926C29.3229 681.374 29.6458 679.749 29.6458 678.051C29.6458 676.942 29.5 675.838 29.2083 674.739C28.9167 673.645 28.375 672.458 27.5833 671.176C27.4479 670.885 27.25 670.593 27 670.301C26.75 670.01 26.625 669.76 26.625 669.551C26.625 669.291 26.8021 669.041 27.1458 668.801L28.8125 667.801C29.0208 667.718 29.2292 667.676 29.4375 667.676C29.7604 667.676 30.0104 667.838 30.1875 668.156C31.1771 669.531 31.9583 671.062 32.5417 672.739C33.125 674.406 33.4167 676.208 33.4167 678.135C33.4167 680.442 32.9844 682.609 32.125 684.635C31.2656 686.65 30.0729 688.421 28.5417 689.947C27 691.479 25.224 692.671 23.2083 693.531C21.1979 694.395 19.0365 694.822 16.7292 694.822C14.4271 694.822 12.2604 694.395 10.2292 693.531C8.1875 692.671 6.40625 691.479 4.875 689.947C3.34896 688.421 2.15625 686.645 1.29167 684.614C0.432292 682.572 0 680.4 0 678.093C0 676.26 0.286459 674.505 0.854167 672.822C1.42708 671.145 2.22917 669.588 3.27083 668.156Z" fill="#49688D"/>
<path d="M0.4375 659.559V637.059C0.4375 636.798 0.520833 636.559 0.6875 636.35C0.843751 636.142 1.07813 636.027 1.39583 635.996H3.1875C3.47917 635.996 3.72917 636.09 3.9375 636.267C4.14583 636.434 4.25 636.699 4.25 637.059V646.371H31.9792C32.2448 646.371 32.474 646.465 32.6667 646.642C32.849 646.824 32.9375 647.074 32.9375 647.392V649.184C32.9375 649.475 32.8542 649.72 32.6875 649.913C32.5104 650.095 32.2708 650.184 31.9792 650.184H4.25V659.559C4.25 660.241 3.89583 660.579 3.1875 660.579H1.39583C0.760417 660.579 0.4375 660.241 0.4375 659.559Z" fill="#49688D"/>
<path d="M33.1667 627.205C33.1667 627.762 32.8542 628.038 32.2292 628.038H30.3125C30.0781 628.038 29.8854 627.986 29.7292 627.871C29.5625 627.746 29.4792 627.569 29.4792 627.33C29.4792 626.486 29.2396 625.762 28.75 625.163C28.2656 624.569 27.2656 623.965 25.75 623.35L21.5417 621.642L1.35417 629.955L1.39583 629.913C1.39583 629.913 1.32813 629.929 1.1875 629.955C1.03646 629.986 0.932292 629.996 0.875 629.996C0.541667 629.996 0.375 629.746 0.375 629.246V626.934C0.375 626.465 0.614583 626.142 1.08333 625.975C3.51563 624.975 6.16667 623.944 9.04167 622.871C11.9167 621.788 14.6562 620.72 17.25 619.663L0.958333 613.392H1C0.583333 613.225 0.375 612.892 0.375 612.392V610.163C0.375 609.611 0.614583 609.33 1.08333 609.33H1.35417L2.35417 609.705H2.3125C4.85417 610.762 7.51563 611.866 10.2917 613.017C13.0729 614.173 15.7813 615.283 18.4167 616.35C21.0573 617.423 23.4896 618.408 25.7083 619.309C27.0573 619.84 28.2917 620.408 29.4167 621.017C30.5417 621.632 31.4531 622.413 32.1458 623.371C32.8281 624.319 33.1667 625.595 33.1667 627.205Z" fill="#49688D"/>
<path d="M0.4375 600.428V578.303C0.4375 577.834 0.682292 577.595 1.16667 577.595H32.0625C32.3021 577.595 32.5104 577.694 32.6875 577.886C32.8542 578.084 32.9375 578.298 32.9375 578.532V580.449C32.9375 580.657 32.849 580.866 32.6667 581.074C32.474 581.272 32.2604 581.366 32.0208 581.366H4.1875V597.324H32.0208C32.2604 597.324 32.474 597.428 32.6667 597.636C32.849 597.834 32.9375 598.048 32.9375 598.282V600.22C32.9375 600.418 32.8542 600.616 32.6875 600.824C32.5104 601.032 32.3021 601.136 32.0625 601.136H1.16667C0.682292 601.136 0.4375 600.902 0.4375 600.428Z" fill="#49688D"/>
<path d="M14.0208 543.123H1.39583C1.13542 543.123 0.911459 543.04 0.729167 542.873C0.536459 542.696 0.4375 542.457 0.4375 542.165V540.373C0.4375 540.113 0.531249 539.873 0.708333 539.665C0.875 539.457 1.10417 539.353 1.39583 539.353H31.9792C32.6198 539.353 32.9375 539.696 32.9375 540.373V542.165C32.9375 542.806 32.6198 543.123 31.9792 543.123H17.7292V562.498H31.9792C32.6198 562.498 32.9375 562.847 32.9375 563.54V565.29C32.9375 565.946 32.6198 566.269 31.9792 566.269H1.39583C1.13542 566.269 0.911459 566.181 0.729167 565.998C0.536459 565.821 0.4375 565.582 0.4375 565.29V563.498C0.4375 563.238 0.536459 563.009 0.729167 562.811C0.911459 562.603 1.13542 562.498 1.39583 562.498H14.0208V543.123Z" fill="#49688D"/>
<path d="M31.8958 528.027H1.39583C0.760417 528.027 0.4375 527.704 0.4375 527.048V525.214C0.4375 524.579 0.760417 524.256 1.39583 524.256H12.6875V516.006C12.6875 514.121 13.1615 512.423 14.1042 510.923C15.0365 509.412 16.2656 508.214 17.7917 507.339C19.3073 506.464 20.9688 506.027 22.7708 506.027C24.6198 506.027 26.3073 506.475 27.8333 507.36C29.3646 508.251 30.599 509.459 31.5417 510.985C32.474 512.501 32.9375 514.225 32.9375 516.152V527.006C32.9375 527.688 32.5938 528.027 31.8958 528.027ZM22.8125 509.798C21.6771 509.798 20.625 510.089 19.6667 510.673C18.6979 511.256 17.9115 512.027 17.3125 512.985C16.7188 513.933 16.4167 514.985 16.4167 516.152V524.256H29.2083V516.152C29.2083 514.959 28.9115 513.891 28.3125 512.944C27.7188 511.985 26.9323 511.225 25.9583 510.652C24.974 510.084 23.9271 509.798 22.8125 509.798ZM1.39583 497.839H31.9792C32.6198 497.839 32.9375 498.173 32.9375 498.839V500.631C32.9375 501.313 32.6198 501.652 31.9792 501.652H1.39583C0.760417 501.652 0.4375 501.313 0.4375 500.631V498.839C0.4375 498.173 0.760417 497.839 1.39583 497.839Z" fill="#49688D"/>
<path d="M0.4375 469.836V447.336C0.4375 447.076 0.520833 446.836 0.6875 446.628C0.843751 446.42 1.07813 446.305 1.39583 446.274H3.1875C3.47917 446.274 3.72917 446.368 3.9375 446.545C4.14583 446.711 4.25 446.977 4.25 447.336V456.649H31.9792C32.2448 456.649 32.474 456.743 32.6667 456.92C32.849 457.102 32.9375 457.352 32.9375 457.67V459.461C32.9375 459.753 32.8542 459.998 32.6875 460.191C32.5104 460.373 32.2708 460.461 31.9792 460.461H4.25V469.836C4.25 470.519 3.89583 470.857 3.1875 470.857H1.39583C0.760417 470.857 0.4375 470.519 0.4375 469.836Z" fill="#49688D"/>
<path d="M0.4375 436.107V415.045C0.4375 414.409 0.770833 414.086 1.4375 414.086H3.22917C3.49479 414.086 3.72917 414.18 3.9375 414.357C4.14583 414.524 4.25 414.769 4.25 415.086V433.316H13.9167V418.816C13.9167 418.555 14 418.326 14.1667 418.128C14.3229 417.935 14.5781 417.836 14.9375 417.836H16.7292C16.9948 417.836 17.2292 417.92 17.4375 418.086C17.6354 418.253 17.7292 418.498 17.7292 418.816V433.316H29.125V414.92C29.125 414.243 29.4792 413.899 30.1875 413.899H31.9792C32.6198 413.899 32.9375 414.222 32.9375 414.857V436.107C32.9375 436.764 32.6354 437.086 32.0208 437.086H1.4375C0.770833 437.086 0.4375 436.764 0.4375 436.107Z" fill="#49688D"/>
<path d="M31.5417 386.958V388.666C31.5417 389.03 31.2812 389.322 30.75 389.541L7.04167 399.624L31.9792 402.041C32.6198 402.041 32.9375 402.374 32.9375 403.041V404.874C32.9375 405.53 32.6198 405.853 31.9792 405.853C26.8698 405.327 21.7708 404.801 16.6875 404.27C11.6042 403.744 6.51042 403.218 1.39583 402.687C1.10417 402.687 0.875 402.593 0.708333 402.395C0.531249 402.187 0.4375 401.937 0.4375 401.645V398.916C0.4375 398.458 0.718751 398.14 1.27083 397.958L25.7083 387.791C21.625 386.098 17.5521 384.405 13.4792 382.708C9.39583 381.015 5.32813 379.322 1.27083 377.624C0.718751 377.489 0.4375 377.181 0.4375 376.708V373.853C0.4375 373.562 0.536459 373.333 0.729167 373.166C0.911459 372.989 1.13542 372.895 1.39583 372.895L31.9792 369.708C32.6198 369.708 32.9375 370.041 32.9375 370.708V372.541C32.9375 373.197 32.6198 373.52 31.9792 373.52L7.04167 375.958L30.75 386.041C31.2812 386.249 31.5417 386.556 31.5417 386.958Z" fill="#49688D"/>
<path d="M30.9585 360.555C30.1147 360.555 29.4116 360.274 28.8543 359.701C28.3022 359.133 28.021 358.451 28.021 357.659C28.021 356.815 28.3231 356.112 28.9168 355.555C29.5002 355.003 30.2606 354.722 31.1877 354.722C32.5627 354.722 33.6981 354.888 34.6043 355.222C35.5054 355.555 36.172 355.93 36.6043 356.347C37.047 356.753 37.271 357.086 37.271 357.347C37.271 357.555 37.2137 357.737 37.1043 357.888L36.5835 358.534C36.4012 358.774 36.1772 358.888 35.9168 358.888C35.6512 358.888 35.4064 358.753 35.1877 358.472C34.9793 358.196 34.5939 358.055 34.0418 358.055H33.8543C33.7397 358.722 33.4064 359.305 32.8543 359.805C32.3022 360.305 31.6668 360.555 30.9585 360.555Z" fill="#49688D"/>
<path d="M1.39605 321.829H15.5835C15.5835 321.803 15.5835 321.783 15.5835 321.767C15.5835 321.757 15.5835 321.746 15.5835 321.746C15.5835 320.803 15.2815 319.809 14.6669 318.767C14.0575 317.715 13.021 316.684 11.5627 315.684L7.91688 313.142C6.4898 312.158 5.20334 311.225 4.06272 310.35C2.9273 309.475 2.02105 308.475 1.35438 307.35C0.6773 306.225 0.349174 304.829 0.375216 303.163C0.375216 302.663 0.640841 302.413 1.16688 302.413H3.10438C3.34397 302.444 3.55751 302.527 3.75022 302.663C3.93251 302.788 4.02105 302.986 4.02105 303.246C4.0523 304.038 4.41167 304.954 5.10438 305.996C5.78667 307.027 6.85438 308.069 8.31272 309.121L12.4794 312.1C12.8544 312.392 13.2711 312.699 13.7294 313.017C14.1773 313.34 14.594 313.658 14.9794 313.975C17.8127 311.559 20.6356 309.116 23.4377 306.642C26.245 304.173 29.12 301.783 32.0627 299.475C32.3283 299.283 32.4898 299.184 32.5419 299.184C32.5992 299.184 32.6825 299.225 32.7919 299.309C32.8908 299.392 32.9377 299.512 32.9377 299.663V303.434C32.9377 303.632 32.8231 303.84 32.5835 304.059C32.3492 304.283 32.0836 304.512 31.7919 304.746C29.4325 306.736 27.0731 308.72 24.7085 310.704C22.3335 312.694 19.969 314.678 17.6044 316.663C18.0106 317.303 18.3544 318.069 18.646 318.954C18.9377 319.845 19.146 320.803 19.271 321.829H31.9794C32.62 321.829 32.9377 322.152 32.9377 322.788V324.621C32.9377 325.277 32.62 325.6 31.9794 325.6H1.39605C0.760633 325.6 0.437716 325.277 0.437716 324.621V322.788C0.437716 322.152 0.760633 321.829 1.39605 321.829Z" fill="#49688D"/>
<path d="M0.4375 290.67V268.17C0.4375 267.91 0.520833 267.67 0.6875 267.462C0.843751 267.254 1.07813 267.139 1.39583 267.108H3.1875C3.47917 267.108 3.72917 267.202 3.9375 267.379C4.14583 267.545 4.25 267.811 4.25 268.17V277.483H31.9792C32.2448 277.483 32.474 277.577 32.6667 277.754C32.849 277.936 32.9375 278.186 32.9375 278.504V280.295C32.9375 280.587 32.8542 280.832 32.6875 281.025C32.5104 281.207 32.2708 281.295 31.9792 281.295H4.25V290.67C4.25 291.353 3.89583 291.691 3.1875 291.691H1.39583C0.760417 291.691 0.4375 291.353 0.4375 290.67Z" fill="#49688D"/>
<path d="M0 242.796C0 240.493 0.432292 238.332 1.29167 236.316C2.15625 234.306 3.34896 232.535 4.875 231.004C6.40625 229.462 8.1875 228.254 10.2292 227.379C12.2604 226.504 14.4375 226.066 16.7708 226.066C19.0781 226.066 21.2396 226.499 23.25 227.358C25.2656 228.223 27.0365 229.431 28.5625 230.983C30.0781 232.525 31.2656 234.306 32.125 236.316C32.9844 238.332 33.4167 240.504 33.4167 242.837C33.4167 245.145 32.9844 247.311 32.125 249.337C31.2656 251.353 30.0729 253.124 28.5417 254.65C27 256.181 25.224 257.374 23.2083 258.233C21.1979 259.098 19.0365 259.525 16.7292 259.525C14.4271 259.525 12.2604 259.098 10.2292 258.233C8.1875 257.374 6.40625 256.181 4.875 254.65C3.34896 253.124 2.15625 251.348 1.29167 249.316C0.432292 247.275 0 245.103 0 242.796ZM16.6875 255.733C18.4688 255.733 20.1458 255.4 21.7292 254.733C23.3021 254.056 24.6823 253.129 25.875 251.962C27.0573 250.796 27.9792 249.421 28.6458 247.837C29.3125 246.254 29.6458 244.577 29.6458 242.796C29.6458 241.02 29.3125 239.358 28.6458 237.816C27.9792 236.264 27.0573 234.895 25.875 233.712C24.6823 232.535 23.3021 231.608 21.7292 230.941C20.1458 230.264 18.4688 229.921 16.6875 229.921C14.9115 229.921 13.25 230.264 11.7083 230.941C10.1562 231.608 8.78646 232.535 7.60417 233.712C6.41146 234.895 5.47917 236.264 4.8125 237.816C4.14583 239.358 3.8125 241.02 3.8125 242.796C3.8125 244.577 4.14583 246.254 4.8125 247.837C5.47917 249.421 6.41146 250.796 7.60417 251.962C8.78646 253.129 10.1562 254.056 11.7083 254.733C13.25 255.4 14.9115 255.733 16.6875 255.733Z" fill="#49688D"/>
<path d="M0.4375 197.415V175.29C0.4375 174.822 0.682292 174.582 1.16667 174.582H32.0625C32.3021 174.582 32.5104 174.681 32.6875 174.874C32.8542 175.072 32.9375 175.285 32.9375 175.52V177.436C32.9375 177.645 32.849 177.853 32.6667 178.061C32.474 178.259 32.2604 178.353 32.0208 178.353H4.1875V194.311H32.0208C32.2604 194.311 32.474 194.415 32.6667 194.624C32.849 194.822 32.9375 195.035 32.9375 195.27V197.207C32.9375 197.405 32.8542 197.603 32.6875 197.811C32.5104 198.02 32.3021 198.124 32.0625 198.124H1.16667C0.682292 198.124 0.4375 197.889 0.4375 197.415Z" fill="#49688D"/>
<path d="M31.9792 163.256H1.47917C0.786459 163.256 0.4375 162.918 0.4375 162.236V151.381C0.4375 149.454 0.895833 147.73 1.8125 146.215C2.72917 144.689 3.96875 143.48 5.52083 142.59C7.0625 141.704 8.75 141.256 10.5833 141.256C12.375 141.256 14.0417 141.694 15.5833 142.569C17.1146 143.444 18.3438 144.642 19.2708 146.152C20.2031 147.652 20.6667 149.35 20.6667 151.236V159.486H31.9792C32.6198 159.486 32.9375 159.808 32.9375 160.444V162.277C32.9375 162.933 32.6198 163.256 31.9792 163.256ZM10.5417 145.027C9.40625 145.027 8.35417 145.314 7.39583 145.881C6.4375 146.454 5.66146 147.215 5.0625 148.173C4.45313 149.121 4.14583 150.189 4.14583 151.381V159.486H16.9375V151.381C16.9375 150.215 16.6406 149.163 16.0417 148.215C15.4479 147.256 14.6667 146.486 13.7083 145.902C12.7396 145.319 11.6823 145.027 10.5417 145.027Z" fill="#49688D"/>
<path d="M32.9375 128.197V130.26C32.9375 130.968 32.6198 131.322 31.9792 131.322H1.39583C1.10417 131.322 0.875 131.213 0.708333 130.989C0.531249 130.77 0.4375 130.525 0.4375 130.26V128.468C0.4375 127.916 0.718751 127.593 1.27083 127.51H26.4583L0.875 107.822C0.583333 107.63 0.4375 107.354 0.4375 106.989V104.593C0.4375 104.301 0.536459 104.072 0.729167 103.906C0.911459 103.729 1.14583 103.635 1.4375 103.635H31.9792C32.6198 103.635 32.9375 103.958 32.9375 104.593V106.385C32.9375 107.051 32.6198 107.385 31.9792 107.385H6.29167L32.5417 127.364C32.8073 127.572 32.9375 127.854 32.9375 128.197Z" fill="#49688D"/>
<path d="M18.9585 91.2708V77.3542C18.9585 77.0937 19.0418 76.8646 19.2085 76.6667C19.3647 76.474 19.5991 76.375 19.9168 76.375H21.771C22.0366 76.375 22.271 76.4687 22.4793 76.6458C22.6772 76.8281 22.771 77.0625 22.771 77.3542V91.2708C22.771 91.9792 22.4377 92.3333 21.771 92.3333H19.9168C19.2814 92.3333 18.9585 91.9792 18.9585 91.2708Z" fill="#49688D"/>
<path d="M60.3591 989.55C60.3591 987.248 60.7914 985.087 61.6508 983.071C62.5154 981.061 63.7081 979.29 65.2341 977.759C66.7654 976.217 68.5466 975.009 70.5883 974.134C72.6195 973.259 74.7966 972.821 77.13 972.821C79.4373 972.821 81.5987 973.254 83.6091 974.113C85.6248 974.978 87.3956 976.186 88.9216 977.738C90.4373 979.28 91.6248 981.061 92.4841 983.071C93.3435 985.087 93.7758 987.259 93.7758 989.592C93.7758 991.899 93.3435 994.066 92.4841 996.092C91.6248 998.108 90.432 999.879 88.9008 1001.4C87.3591 1002.94 85.5831 1004.13 83.5675 1004.99C81.557 1005.85 79.3956 1006.28 77.0883 1006.28C74.7862 1006.28 72.6195 1005.85 70.5883 1004.99C68.5466 1004.13 66.7654 1002.94 65.2341 1001.4C63.7081 999.879 62.5154 998.103 61.6508 996.071C60.7914 994.03 60.3591 991.858 60.3591 989.55ZM77.0466 1002.49C78.8279 1002.49 80.505 1002.15 82.0883 1001.49C83.6612 1000.81 85.0414 999.884 86.2341 998.717C87.4164 997.55 88.3383 996.175 89.005 994.592C89.6716 993.009 90.005 991.332 90.005 989.55C90.005 987.774 89.6716 986.113 89.005 984.571C88.3383 983.019 87.4164 981.649 86.2341 980.467C85.0414 979.29 83.6612 978.363 82.0883 977.696C80.505 977.019 78.8279 976.675 77.0466 976.675C75.2706 976.675 73.6091 977.019 72.0675 977.696C70.5154 978.363 69.1456 979.29 67.9633 980.467C66.7706 981.649 65.8383 983.019 65.1716 984.571C64.505 986.113 64.1716 987.774 64.1716 989.55C64.1716 991.332 64.505 993.009 65.1716 994.592C65.8383 996.175 66.7706 997.55 67.9633 998.717C69.1456 999.884 70.5154 1000.81 72.0675 1001.49C73.6091 1002.15 75.2706 1002.49 77.0466 1002.49Z" fill="#49688D"/>
<path d="M60.7966 962.221V943.117C60.7966 942.617 61.057 942.367 61.5675 942.367H63.7758C64.2914 942.367 64.5466 942.632 64.5466 943.158V959.158H73.2758V949.513C73.2758 947.611 73.7498 945.919 74.6925 944.429C75.6248 942.945 76.8383 941.773 78.3383 940.908C79.8383 940.049 81.4789 939.617 83.255 939.617C85.0779 939.617 86.7498 940.054 88.2758 940.929C89.7914 941.804 91.005 943.002 91.9216 944.513C92.8383 946.013 93.2966 947.721 93.2966 949.638V962.221C93.2966 962.695 93.0779 962.929 92.63 962.929H61.4841C61.3175 962.929 61.1664 962.882 61.0258 962.783C60.8748 962.674 60.7966 962.486 60.7966 962.221ZM83.3175 943.388C82.2081 943.388 81.1716 943.674 80.2133 944.242C79.2445 944.815 78.4633 945.57 77.88 946.513C77.2966 947.46 77.005 948.502 77.005 949.638V959.158H89.6091V949.638C89.6091 948.471 89.3123 947.419 88.7133 946.471C88.1195 945.528 87.3383 944.778 86.38 944.221C85.4112 943.669 84.3904 943.388 83.3175 943.388Z" fill="#49688D"/>
<path d="M92.3383 929.9H61.8383C61.1456 929.9 60.7966 929.561 60.7966 928.879V918.025C60.7966 916.098 61.255 914.374 62.1716 912.858C63.0883 911.332 64.3279 910.124 65.88 909.233C67.4216 908.348 69.1091 907.9 70.9425 907.9C72.7341 907.9 74.4008 908.337 75.9425 909.212C77.4737 910.087 78.7029 911.285 79.63 912.796C80.5623 914.296 81.0258 915.994 81.0258 917.879V926.129H92.3383C92.9789 926.129 93.2966 926.452 93.2966 927.087V928.921C93.2966 929.577 92.9789 929.9 92.3383 929.9ZM70.9008 911.671C69.7654 911.671 68.7133 911.957 67.755 912.525C66.7966 913.098 66.0206 913.858 65.4216 914.817C64.8123 915.764 64.505 916.832 64.505 918.025V926.129H77.2966V918.025C77.2966 916.858 76.9998 915.806 76.4008 914.858C75.807 913.9 75.0258 913.129 74.0675 912.546C73.0987 911.962 72.0414 911.671 70.9008 911.671Z" fill="#49688D"/>
<path d="M60.7966 896.986V875.924C60.7966 875.288 61.13 874.965 61.7966 874.965H63.5883C63.8539 874.965 64.0883 875.059 64.2966 875.236C64.505 875.403 64.6091 875.648 64.6091 875.965V894.194H74.2758V879.694C74.2758 879.434 74.3591 879.205 74.5258 879.007C74.682 878.814 74.9373 878.715 75.2966 878.715H77.0883C77.3539 878.715 77.5883 878.799 77.7966 878.965C77.9945 879.132 78.0883 879.377 78.0883 879.694V894.194H89.4841V875.799C89.4841 875.122 89.8383 874.778 90.5466 874.778H92.3383C92.9789 874.778 93.2966 875.101 93.2966 875.736V896.986C93.2966 897.642 92.9945 897.965 92.38 897.965H61.7966C61.13 897.965 60.7966 897.642 60.7966 896.986Z" fill="#49688D"/>
<path d="M60.7966 867.065V844.565C60.7966 844.305 60.88 844.065 61.0466 843.857C61.2029 843.649 61.4373 843.534 61.755 843.503H63.5466C63.8383 843.503 64.0883 843.597 64.2966 843.774C64.505 843.94 64.6091 844.206 64.6091 844.565V853.878H92.3383C92.6039 853.878 92.8331 853.972 93.0258 854.149C93.2081 854.331 93.2966 854.581 93.2966 854.899V856.69C93.2966 856.982 93.2133 857.227 93.0466 857.42C92.8695 857.602 92.63 857.69 92.3383 857.69H64.6091V867.065C64.6091 867.748 64.255 868.086 63.5466 868.086H61.755C61.1195 868.086 60.7966 867.748 60.7966 867.065Z" fill="#49688D"/>
<path d="M60.7966 833.336V812.274C60.7966 811.638 61.13 811.315 61.7966 811.315H63.5883C63.8539 811.315 64.0883 811.409 64.2966 811.586C64.505 811.753 64.6091 811.998 64.6091 812.315V830.545H74.2758V816.045C74.2758 815.784 74.3591 815.555 74.5258 815.357C74.682 815.164 74.9373 815.065 75.2966 815.065H77.0883C77.3539 815.065 77.5883 815.149 77.7966 815.315C77.9945 815.482 78.0883 815.727 78.0883 816.045V830.545H89.4841V812.149C89.4841 811.472 89.8383 811.128 90.5466 811.128H92.3383C92.9789 811.128 93.2966 811.451 93.2966 812.086V833.336C93.2966 833.993 92.9946 834.315 92.38 834.315H61.7966C61.13 834.315 60.7966 833.993 60.7966 833.336ZM54.6091 829.045C53.8487 829.045 53.2029 828.774 52.6716 828.232C52.13 827.69 51.8591 827.06 51.8591 826.336C51.8591 825.545 52.13 824.888 52.6716 824.357C53.2029 823.831 53.8487 823.565 54.6091 823.565C55.3487 823.565 55.9841 823.831 56.5258 824.357C57.057 824.888 57.3175 825.545 57.3175 826.336C57.3175 827.06 57.057 827.69 56.5258 828.232C55.9841 828.774 55.3487 829.045 54.6091 829.045ZM54.5675 820.899C53.807 820.899 53.1508 820.628 52.6091 820.086C52.0675 819.545 51.7966 818.914 51.7966 818.19C51.7966 817.399 52.0675 816.743 52.6091 816.211C53.1508 815.685 53.807 815.42 54.5675 815.42C55.307 815.42 55.9425 815.685 56.4841 816.211C57.0154 816.743 57.2758 817.399 57.2758 818.19C57.2758 818.914 57.0154 819.545 56.4841 820.086C55.9425 820.628 55.307 820.899 54.5675 820.899Z" fill="#49688D"/>
<path d="M60.7966 803.416V780.916C60.7966 780.656 60.88 780.416 61.0466 780.208C61.2029 779.999 61.4373 779.885 61.755 779.854H63.5466C63.8383 779.854 64.0883 779.947 64.2966 780.124C64.505 780.291 64.6091 780.557 64.6091 780.916V790.229H92.3383C92.6039 790.229 92.8331 790.322 93.0258 790.499C93.2081 790.682 93.2966 790.932 93.2966 791.249V793.041C93.2966 793.333 93.2133 793.577 93.0466 793.77C92.8695 793.952 92.63 794.041 92.3383 794.041H64.6091V803.416C64.6091 804.098 64.255 804.437 63.5466 804.437H61.755C61.1195 804.437 60.7966 804.098 60.7966 803.416Z" fill="#49688D"/>
<path d="M60.3591 737.449C60.3591 735.147 60.7914 732.985 61.6508 730.97C62.5154 728.959 63.7081 727.188 65.2341 725.657C66.7654 724.116 68.5466 722.907 70.5883 722.032C72.6195 721.157 74.7966 720.72 77.13 720.72C79.4373 720.72 81.5987 721.152 83.6091 722.011C85.6248 722.876 87.3956 724.084 88.9216 725.636C90.4373 727.178 91.6248 728.959 92.4841 730.97C93.3435 732.985 93.7758 735.157 93.7758 737.491C93.7758 739.798 93.3435 741.965 92.4841 743.991C91.6248 746.006 90.432 747.777 88.9008 749.303C87.3591 750.834 85.5831 752.027 83.5675 752.886C81.557 753.751 79.3956 754.178 77.0883 754.178C74.7862 754.178 72.6195 753.751 70.5883 752.886C68.5466 752.027 66.7654 750.834 65.2341 749.303C63.7081 747.777 62.5154 746.001 61.6508 743.97C60.7914 741.928 60.3591 739.756 60.3591 737.449ZM77.0466 750.386C78.8279 750.386 80.505 750.053 82.0883 749.386C83.6612 748.709 85.0414 747.782 86.2341 746.616C87.4164 745.449 88.3383 744.074 89.005 742.491C89.6716 740.907 90.005 739.23 90.005 737.449C90.005 735.673 89.6716 734.011 89.005 732.47C88.3383 730.918 87.4164 729.548 86.2341 728.366C85.0414 727.188 83.6612 726.261 82.0883 725.595C80.505 724.918 78.8279 724.574 77.0466 724.574C75.2706 724.574 73.6091 724.918 72.0675 725.595C70.5154 726.261 69.1456 727.188 67.9633 728.366C66.7706 729.548 65.8383 730.918 65.1716 732.47C64.505 734.011 64.1716 735.673 64.1716 737.449C64.1716 739.23 64.505 740.907 65.1716 742.491C65.8383 744.074 66.7706 745.449 67.9633 746.616C69.1456 747.782 70.5154 748.709 72.0675 749.386C73.6091 750.053 75.2706 750.386 77.0466 750.386Z" fill="#49688D"/>
<path d="M60.7966 710.119V691.015C60.7966 690.515 61.057 690.265 61.5675 690.265H63.7758C64.2914 690.265 64.5466 690.53 64.5466 691.056V707.056H73.2758V697.41C73.2758 695.509 73.7498 693.817 74.6925 692.327C75.6248 690.843 76.8383 689.671 78.3383 688.806C79.8383 687.947 81.4789 687.515 83.255 687.515C85.0779 687.515 86.7498 687.952 88.2758 688.827C89.7914 689.702 91.005 690.9 91.9216 692.41C92.8383 693.91 93.2966 695.619 93.2966 697.535V710.119C93.2966 710.593 93.0779 710.827 92.63 710.827H61.4841C61.3175 710.827 61.1664 710.78 61.0258 710.681C60.8748 710.572 60.7966 710.384 60.7966 710.119ZM83.3175 691.285C82.2081 691.285 81.1716 691.572 80.2133 692.14C79.2445 692.713 78.4633 693.468 77.88 694.41C77.2966 695.358 77.005 696.4 77.005 697.535V707.056H89.6091V697.535C89.6091 696.369 89.3123 695.317 88.7133 694.369C88.1195 693.426 87.3383 692.676 86.38 692.119C85.4112 691.567 84.3904 691.285 83.3175 691.285Z" fill="#49688D"/>
<path d="M93.5258 678.194C93.5258 678.751 93.2133 679.027 92.5883 679.027H90.6716C90.4373 679.027 90.2445 678.975 90.0883 678.861C89.9216 678.736 89.8383 678.558 89.8383 678.319C89.8383 677.475 89.5987 676.751 89.1091 676.152C88.6248 675.558 87.6248 674.954 86.1091 674.34L81.9008 672.631L61.7133 680.944L61.755 680.902C61.755 680.902 61.6873 680.918 61.5466 680.944C61.3956 680.975 61.2914 680.986 61.2341 680.986C60.9008 680.986 60.7341 680.736 60.7341 680.236V677.923C60.7341 677.454 60.9737 677.131 61.4425 676.965C63.8748 675.965 66.5258 674.933 69.4008 673.861C72.2758 672.777 75.0154 671.709 77.6091 670.652L61.3175 664.381H61.3591C60.9425 664.215 60.7341 663.881 60.7341 663.381V661.152C60.7341 660.6 60.9737 660.319 61.4425 660.319H61.7133L62.7133 660.694H62.6716C65.2133 661.751 67.8748 662.855 70.6508 664.006C73.432 665.163 76.1404 666.272 78.7758 667.34C81.4164 668.413 83.8487 669.397 86.0675 670.298C87.4164 670.829 88.6508 671.397 89.7758 672.006C90.9008 672.621 91.8123 673.402 92.505 674.361C93.1873 675.308 93.5258 676.584 93.5258 678.194Z" fill="#49688D"/>
<path d="M61.6716 630.729H92.38C92.6195 630.729 92.8331 630.834 93.0258 631.042C93.2081 631.25 93.2966 631.474 93.2966 631.709V633.542C93.2966 633.834 93.2289 634.078 93.0883 634.271C92.9373 634.453 92.7133 634.542 92.4216 634.542H81.2966C82.4945 635.308 83.4529 636.412 84.1716 637.854C84.88 639.302 85.2341 640.74 85.2341 642.167C85.2341 644.334 84.7289 646.245 83.7133 647.896C82.6873 649.552 81.307 650.834 79.5675 651.75C77.8331 652.667 75.9216 653.125 73.8383 653.125H61.6716C61.4373 653.125 61.2237 653.037 61.0258 652.854C60.8331 652.662 60.7341 652.448 60.7341 652.209V650.375C60.7341 650.115 60.8279 649.875 61.005 649.667C61.1873 649.459 61.3956 649.354 61.63 649.354H74.9841C76.1508 649.354 77.2289 649 78.2133 648.292C79.1873 647.573 79.9633 646.657 80.5466 645.542C81.13 644.433 81.4216 643.308 81.4216 642.167C81.4216 641.058 81.1508 639.927 80.6091 638.771C80.0675 637.62 79.3331 636.641 78.4008 635.834C77.4737 635.016 76.4216 634.584 75.255 634.542H61.5675C61.3487 634.542 61.1508 634.453 60.9841 634.271C60.8175 634.078 60.7341 633.834 60.7341 633.542V631.709C60.7341 631.474 60.8331 631.25 61.0258 631.042C61.2237 630.834 61.4373 630.729 61.6716 630.729Z" fill="#49688D"/>
<path d="M60.7966 618.732V597.67C60.7966 597.034 61.13 596.711 61.7966 596.711H63.5883C63.8539 596.711 64.0883 596.805 64.2966 596.982C64.505 597.149 64.6091 597.394 64.6091 597.711V615.941H74.2758V601.441C74.2758 601.18 74.3591 600.951 74.5258 600.753C74.682 600.56 74.9373 600.461 75.2966 600.461H77.0883C77.3539 600.461 77.5883 600.545 77.7966 600.711C77.9945 600.878 78.0883 601.123 78.0883 601.441V615.941H89.4841V597.545C89.4841 596.868 89.8383 596.524 90.5466 596.524H92.3383C92.9789 596.524 93.2966 596.847 93.2966 597.482V618.732C93.2966 619.389 92.9945 619.711 92.38 619.711H61.7966C61.13 619.711 60.7966 619.389 60.7966 618.732Z" fill="#49688D"/>
<path d="M74.38 564.062H61.755C61.4945 564.062 61.2706 563.979 61.0883 563.812C60.8956 563.635 60.7966 563.395 60.7966 563.104V561.312C60.7966 561.051 60.8904 560.812 61.0675 560.604C61.2341 560.395 61.4633 560.291 61.755 560.291H92.3383C92.9789 560.291 93.2966 560.635 93.2966 561.312V563.104C93.2966 563.744 92.9789 564.062 92.3383 564.062H78.0883V583.437H92.3383C92.9789 583.437 93.2966 583.786 93.2966 584.479V586.229C93.2966 586.885 92.9789 587.208 92.3383 587.208H61.755C61.4945 587.208 61.2706 587.119 61.0883 586.937C60.8956 586.76 60.7966 586.52 60.7966 586.229V584.437C60.7966 584.176 60.8956 583.947 61.0883 583.749C61.2706 583.541 61.4945 583.437 61.755 583.437H74.38V564.062Z" fill="#49688D"/>
<path d="M93.2966 545.84V547.903C93.2966 548.611 92.9789 548.965 92.3383 548.965H61.755C61.4633 548.965 61.2341 548.856 61.0675 548.632C60.8904 548.413 60.7966 548.168 60.7966 547.903V546.111C60.7966 545.559 61.0779 545.236 61.63 545.153H86.8175L61.2341 525.465C60.9425 525.273 60.7966 524.997 60.7966 524.632V522.236C60.7966 521.944 60.8956 521.715 61.0883 521.549C61.2706 521.372 61.505 521.278 61.7966 521.278H92.3383C92.9789 521.278 93.2966 521.601 93.2966 522.236V524.028C93.2966 524.694 92.9789 525.028 92.3383 525.028H66.6508L92.9008 545.007C93.1664 545.215 93.2966 545.497 93.2966 545.84Z" fill="#49688D"/>
<path d="M60.7966 508.955V487.893C60.7966 487.257 61.13 486.935 61.7966 486.935H63.5883C63.8539 486.935 64.0883 487.028 64.2966 487.205C64.505 487.372 64.6091 487.617 64.6091 487.935V506.164H74.2758V491.664C74.2758 491.403 74.3591 491.174 74.5258 490.976C74.682 490.784 74.9373 490.685 75.2966 490.685H77.0883C77.3539 490.685 77.5883 490.768 77.7966 490.935C77.9945 491.101 78.0883 491.346 78.0883 491.664V506.164H89.4841V487.768C89.4841 487.091 89.8383 486.747 90.5466 486.747H92.3383C92.9789 486.747 93.2966 487.07 93.2966 487.705V508.955C93.2966 509.612 92.9945 509.935 92.38 509.935H61.7966C61.13 509.935 60.7966 509.612 60.7966 508.955Z" fill="#49688D"/>
<path d="M60.7966 458.672V436.547C60.7966 436.078 61.0414 435.839 61.5258 435.839H92.4216C92.6612 435.839 92.8695 435.938 93.0466 436.131C93.2133 436.328 93.2966 436.542 93.2966 436.776V438.693C93.2966 438.901 93.2081 439.11 93.0258 439.318C92.8331 439.516 92.6195 439.61 92.38 439.61H64.5466V455.568H92.38C92.6195 455.568 92.8331 455.672 93.0258 455.881C93.2081 456.078 93.2966 456.292 93.2966 456.526V458.464C93.2966 458.662 93.2133 458.86 93.0466 459.068C92.8695 459.276 92.6612 459.381 92.4216 459.381H61.5258C61.0414 459.381 60.7966 459.146 60.7966 458.672Z" fill="#49688D"/>
<path d="M92.3383 424.513H61.8383C61.1456 424.513 60.7966 424.175 60.7966 423.492V412.638C60.7966 410.711 61.255 408.987 62.1716 407.472C63.0883 405.945 64.3279 404.737 65.88 403.847C67.4216 402.961 69.1091 402.513 70.9425 402.513C72.7341 402.513 74.4008 402.951 75.9425 403.826C77.4737 404.701 78.7029 405.899 79.63 407.409C80.5623 408.909 81.0258 410.607 81.0258 412.492V420.742H92.3383C92.9789 420.742 93.2966 421.065 93.2966 421.701V423.534C93.2966 424.19 92.9789 424.513 92.3383 424.513ZM70.9008 406.284C69.7654 406.284 68.7133 406.57 67.755 407.138C66.7966 407.711 66.0206 408.472 65.4216 409.43C64.8123 410.378 64.505 411.445 64.505 412.638V420.742H77.2966V412.638C77.2966 411.472 76.9998 410.419 76.4008 409.472C75.807 408.513 75.0258 407.742 74.0675 407.159C73.0987 406.576 72.0414 406.284 70.9008 406.284Z" fill="#49688D"/>
<path d="M71.0883 390.954C72.255 390.954 73.3487 390.673 74.3591 390.1C75.3591 389.532 76.1612 388.761 76.755 387.787C77.3539 386.803 77.6508 385.699 77.6508 384.475V374.558H64.505V384.412C64.505 385.652 64.8175 386.761 65.4425 387.745C66.057 388.719 66.8591 389.495 67.8591 390.079C68.8487 390.662 69.9216 390.954 71.0883 390.954ZM61.8383 370.787H92.3383C92.9789 370.787 93.2966 371.115 93.2966 371.766V373.6C93.2966 374.24 92.9789 374.558 92.3383 374.558H81.38V382.225C81.38 382.407 81.38 382.699 81.38 383.1C81.38 383.49 81.3748 383.865 81.3591 384.225C81.3487 384.589 81.3383 384.829 81.3383 384.954L92.4633 390.245C93.0206 390.511 93.2966 390.891 93.2966 391.391V393.808C93.2966 394.324 93.1091 394.579 92.7341 394.579C92.6664 394.579 92.6039 394.574 92.5466 394.558C92.4945 394.548 92.4216 394.527 92.3383 394.495L80.4633 388.725C79.6456 390.506 78.3956 391.949 76.7133 393.058C75.0362 394.173 73.1716 394.725 71.13 394.725C69.2289 394.725 67.4998 394.266 65.9425 393.35C64.3748 392.423 63.1248 391.178 62.1925 389.62C61.2654 388.053 60.7966 386.318 60.7966 384.412V371.766C60.7966 371.115 61.1456 370.787 61.8383 370.787Z" fill="#49688D"/>
<path d="M91.9008 341.618V343.326C91.9008 343.691 91.6404 343.982 91.1091 344.201L67.4008 354.284L92.3383 356.701C92.9789 356.701 93.2966 357.034 93.2966 357.701V359.534C93.2966 360.191 92.9789 360.514 92.3383 360.514C87.2289 359.987 82.13 359.461 77.0466 358.93C71.9633 358.404 66.8695 357.878 61.755 357.347C61.4633 357.347 61.2341 357.253 61.0675 357.055C60.8904 356.847 60.7966 356.597 60.7966 356.305V353.576C60.7966 353.118 61.0779 352.8 61.63 352.618L86.0675 342.451C81.9841 340.758 77.9112 339.066 73.8383 337.368C69.755 335.675 65.6873 333.982 61.63 332.284C61.0779 332.149 60.7966 331.842 60.7966 331.368V328.514C60.7966 328.222 60.8956 327.993 61.0883 327.826C61.2706 327.649 61.4945 327.555 61.755 327.555L92.3383 324.368C92.9789 324.368 93.2966 324.701 93.2966 325.368V327.201C93.2966 327.857 92.9789 328.18 92.3383 328.18L67.4008 330.618L91.1091 340.701C91.6404 340.909 91.9008 341.217 91.9008 341.618Z" fill="#49688D"/>
<path d="M60.3591 299.174C60.3591 296.871 60.7914 294.71 61.6508 292.694C62.5154 290.684 63.7081 288.913 65.2341 287.382C66.7654 285.84 68.5466 284.632 70.5883 283.757C72.6195 282.882 74.7966 282.444 77.13 282.444C79.4373 282.444 81.5987 282.877 83.6091 283.736C85.6248 284.601 87.3956 285.809 88.9216 287.361C90.4373 288.903 91.6248 290.684 92.4841 292.694C93.3435 294.71 93.7758 296.882 93.7758 299.215C93.7758 301.522 93.3435 303.689 92.4841 305.715C91.6248 307.731 90.432 309.502 88.9008 311.028C87.3591 312.559 85.5831 313.752 83.5675 314.611C81.557 315.476 79.3956 315.903 77.0883 315.903C74.7862 315.903 72.6195 315.476 70.5883 314.611C68.5466 313.752 66.7654 312.559 65.2341 311.028C63.7081 309.502 62.5154 307.726 61.6508 305.694C60.7914 303.653 60.3591 301.481 60.3591 299.174ZM77.0466 312.111C78.8279 312.111 80.505 311.778 82.0883 311.111C83.6612 310.434 85.0414 309.507 86.2341 308.34C87.4164 307.174 88.3383 305.799 89.005 304.215C89.6716 302.632 90.005 300.955 90.005 299.174C90.005 297.397 89.6716 295.736 89.005 294.194C88.3383 292.642 87.4164 291.272 86.2341 290.09C85.0414 288.913 83.6612 287.986 82.0883 287.319C80.505 286.642 78.8279 286.299 77.0466 286.299C75.2706 286.299 73.6091 286.642 72.0675 287.319C70.5154 287.986 69.1456 288.913 67.9633 290.09C66.7706 291.272 65.8383 292.642 65.1716 294.194C64.505 295.736 64.1716 297.397 64.1716 299.174C64.1716 300.955 64.505 302.632 65.1716 304.215C65.8383 305.799 66.7706 307.174 67.9633 308.34C69.1456 309.507 70.5154 310.434 72.0675 311.111C73.6091 311.778 75.2706 312.111 77.0466 312.111Z" fill="#49688D"/>
<path d="M63.63 229.397C63.8695 229.012 64.1195 228.814 64.38 228.814C64.4945 228.814 64.6248 228.856 64.7758 228.939C64.9164 229.012 65.0362 229.074 65.13 229.126L66.5675 230.043C66.9164 230.309 67.0883 230.559 67.0883 230.793C67.0623 230.876 67.0258 230.991 66.9841 231.126C66.9425 231.251 66.8695 231.408 66.755 231.585C65.9633 232.668 65.3487 233.876 64.9008 235.21C64.4425 236.533 64.2133 237.866 64.2133 239.21C64.2133 241.142 64.557 242.908 65.2341 244.501C65.9164 246.085 66.8695 247.455 68.0883 248.606C69.2966 249.762 70.682 250.663 72.2341 251.314C73.7758 251.955 75.4112 252.272 77.13 252.272C78.9373 252.272 80.6248 251.929 82.1925 251.231C83.7498 250.522 85.1195 249.559 86.2966 248.335C87.4633 247.1 88.3748 245.71 89.0258 244.168C89.682 242.616 90.005 240.991 90.005 239.293C90.005 238.184 89.8591 237.08 89.5675 235.981C89.2758 234.887 88.7341 233.699 87.9425 232.418C87.807 232.126 87.6091 231.835 87.3591 231.543C87.1091 231.251 86.9841 231.001 86.9841 230.793C86.9841 230.533 87.1612 230.283 87.505 230.043L89.1716 229.043C89.38 228.96 89.5883 228.918 89.7966 228.918C90.1195 228.918 90.3695 229.08 90.5466 229.397C91.5362 230.772 92.3175 232.304 92.9008 233.981C93.4841 235.647 93.7758 237.449 93.7758 239.376C93.7758 241.684 93.3435 243.85 92.4841 245.876C91.6248 247.892 90.432 249.663 88.9008 251.189C87.3591 252.72 85.5831 253.913 83.5675 254.772C81.557 255.637 79.3956 256.064 77.0883 256.064C74.7862 256.064 72.6195 255.637 70.5883 254.772C68.5466 253.913 66.7654 252.72 65.2341 251.189C63.7081 249.663 62.5154 247.887 61.6508 245.856C60.7914 243.814 60.3591 241.642 60.3591 239.335C60.3591 237.501 60.6456 235.746 61.2133 234.064C61.7862 232.387 62.5883 230.83 63.63 229.397Z" fill="#49688D"/>
<path d="M60.7966 218.217V197.155C60.7966 196.519 61.13 196.196 61.7966 196.196H63.5883C63.8539 196.196 64.0883 196.29 64.2966 196.467C64.505 196.634 64.6091 196.879 64.6091 197.196V215.425H74.2758V200.925C74.2758 200.665 74.3591 200.436 74.5258 200.238C74.682 200.045 74.9373 199.946 75.2966 199.946H77.0883C77.3539 199.946 77.5883 200.03 77.7966 200.196C77.9945 200.363 78.0883 200.608 78.0883 200.925V215.425H89.4841V197.03C89.4841 196.353 89.8383 196.009 90.5466 196.009H92.3383C92.9789 196.009 93.2966 196.332 93.2966 196.967V218.217C93.2966 218.873 92.9945 219.196 92.38 219.196H61.7966C61.13 219.196 60.7966 218.873 60.7966 218.217Z" fill="#49688D"/>
<path d="M56.7965 172.88C56.7965 171.869 56.5674 170.942 56.109 170.109C55.6403 169.276 55.0153 168.609 54.234 168.109C53.458 167.609 52.6299 167.359 51.7549 167.359C51.4372 167.359 51.2132 167.479 51.0882 167.713C50.9528 167.953 50.8799 168.213 50.8799 168.505V169.776C50.8799 170.125 50.9997 170.354 51.234 170.463C51.4736 170.562 51.708 170.609 51.9424 170.609C52.4007 170.609 52.8122 170.817 53.1715 171.234C53.5205 171.64 53.6924 172.161 53.6924 172.797C53.6924 173.562 53.4997 174.14 53.109 174.526C52.708 174.916 52.2549 175.109 51.7549 175.109C51.5361 175.109 51.333 175.192 51.1507 175.359C50.9736 175.526 50.8799 175.744 50.8799 176.005V177.484C50.8799 177.692 50.9736 177.89 51.1507 178.067C51.333 178.234 51.5361 178.317 51.7549 178.317C52.6299 178.317 53.4528 178.083 54.2132 177.609C54.9788 177.125 55.5986 176.474 56.0674 175.651C56.5257 174.833 56.7705 173.911 56.7965 172.88ZM93.2966 183.567V185.63C93.2966 186.338 92.9788 186.692 92.3382 186.692H61.7549C61.4632 186.692 61.234 186.583 61.0674 186.359C60.8903 186.14 60.7965 185.896 60.7965 185.63V183.838C60.7965 183.286 61.0778 182.963 61.6299 182.88H86.8174L61.234 163.192C60.9424 163 60.7965 162.724 60.7965 162.359V159.963C60.7965 159.672 60.8955 159.442 61.0882 159.276C61.2705 159.099 61.5049 159.005 61.7965 159.005H92.3382C92.9788 159.005 93.2966 159.328 93.2966 159.963V161.755C93.2966 162.422 92.9788 162.755 92.3382 162.755H66.6507L92.9007 182.734C93.1663 182.942 93.2966 183.224 93.2966 183.567Z" fill="#49688D"/>
<path d="M61.6716 126.308H92.38C92.6195 126.308 92.8331 126.412 93.0258 126.62C93.2081 126.828 93.2966 127.052 93.2966 127.287V129.12C93.2966 129.412 93.2289 129.657 93.0883 129.849C92.9373 130.032 92.7133 130.12 92.4216 130.12H81.2966C82.4945 130.886 83.4529 131.99 84.1716 133.433C84.88 134.881 85.2341 136.318 85.2341 137.745C85.2341 139.912 84.7289 141.823 83.7133 143.474C82.6873 145.131 81.307 146.412 79.5675 147.328C77.8331 148.245 75.9216 148.703 73.8383 148.703H61.6716C61.4373 148.703 61.2237 148.615 61.0258 148.433C60.8331 148.24 60.7341 148.026 60.7341 147.787V145.953C60.7341 145.693 60.8279 145.453 61.005 145.245C61.1873 145.037 61.3956 144.933 61.63 144.933H74.9841C76.1508 144.933 77.2289 144.578 78.2133 143.87C79.1873 143.151 79.9633 142.235 80.5466 141.12C81.13 140.011 81.4216 138.886 81.4216 137.745C81.4216 136.636 81.1508 135.506 80.6091 134.349C80.0675 133.198 79.3331 132.219 78.4008 131.412C77.4737 130.594 76.4216 130.162 75.255 130.12H61.5675C61.3487 130.12 61.1508 130.032 60.9841 129.849C60.8175 129.657 60.7341 129.412 60.7341 129.12V127.287C60.7341 127.052 60.8331 126.828 61.0258 126.62C61.2237 126.412 61.4373 126.308 61.6716 126.308Z" fill="#49688D"/>
<path d="M86.1925 111.289L92.4216 113.748C93.005 114.013 93.2966 114.425 93.2966 114.977V116.852C93.2966 117.477 93.0623 117.789 92.5883 117.789C92.4529 117.789 92.3279 117.779 92.2133 117.748C92.0883 117.706 92.0258 117.685 92.0258 117.685C86.9425 115.591 82.6612 113.81 79.1716 112.352C75.6716 110.894 72.8175 109.701 70.6091 108.769C68.3904 107.826 66.6612 107.097 65.4216 106.581C64.1716 106.071 63.2758 105.701 62.7341 105.477C62.1925 105.243 61.8695 105.102 61.755 105.06C61.63 105.008 61.5675 104.977 61.5675 104.977C61.432 104.925 61.2706 104.826 61.0883 104.685C60.8956 104.534 60.7966 104.269 60.7966 103.894V102.623C60.7966 102.248 60.8956 101.993 61.0883 101.852C61.2706 101.701 61.432 101.591 61.5675 101.519L92.0675 88.9144C92.0675 88.9144 92.1404 88.8936 92.2758 88.8519C92.4008 88.7998 92.505 88.7686 92.5883 88.7686C93.0623 88.7686 93.2966 89.0967 93.2966 89.7477V91.6227C93.2966 92.2061 93.0206 92.6019 92.4633 92.8102L86.1925 95.3519V111.289ZM66.4425 103.269L82.4841 109.727V96.8727L66.4425 103.269Z" fill="#49688D"/>
<path d="M63.63 54.4818C63.8695 54.0964 64.1195 53.8984 64.38 53.8984C64.4945 53.8984 64.6248 53.9401 64.7758 54.0234C64.9164 54.0964 65.0362 54.1589 65.13 54.2109L66.5675 55.1276C66.9164 55.3932 67.0883 55.6432 67.0883 55.8776C67.0623 55.9609 67.0258 56.0755 66.9841 56.2109C66.9425 56.3359 66.8695 56.4922 66.755 56.6693C65.9633 57.7526 65.3487 58.9609 64.9008 60.2943C64.4425 61.6172 64.2133 62.9505 64.2133 64.2943C64.2133 66.2266 64.557 67.9922 65.2341 69.5859C65.9164 71.1693 66.8695 72.5391 68.0883 73.6901C69.2966 74.8464 70.682 75.7474 72.2341 76.3984C73.7758 77.0391 75.4112 77.3568 77.13 77.3568C78.9373 77.3568 80.6248 77.013 82.1925 76.3151C83.7498 75.6068 85.1195 74.6432 86.2966 73.4193C87.4633 72.1849 88.3748 70.7943 89.0258 69.2526C89.682 67.7005 90.005 66.0755 90.005 64.3776C90.005 63.2682 89.8591 62.1641 89.5675 61.0651C89.2758 59.9714 88.7341 58.7839 87.9425 57.5026C87.807 57.2109 87.6091 56.9193 87.3591 56.6276C87.1091 56.3359 86.9841 56.0859 86.9841 55.8776C86.9841 55.6172 87.1612 55.3672 87.505 55.1276L89.1716 54.1276C89.38 54.0443 89.5883 54.0026 89.7966 54.0026C90.1195 54.0026 90.3695 54.1641 90.5466 54.4818C91.5362 55.8568 92.3175 57.388 92.9008 59.0651C93.4841 60.7318 93.7758 62.5339 93.7758 64.4609C93.7758 66.7682 93.3435 68.9349 92.4841 70.9609C91.6248 72.9766 90.432 74.7474 88.9008 76.2734C87.3591 77.8047 85.5831 78.9974 83.5675 79.8568C81.557 80.7214 79.3956 81.1484 77.0883 81.1484C74.7862 81.1484 72.6195 80.7214 70.5883 79.8568C68.5466 78.9974 66.7654 77.8047 65.2341 76.2734C63.7081 74.7474 62.5154 72.9714 61.6508 70.9401C60.7914 68.8984 60.3591 66.7266 60.3591 64.4193C60.3591 62.5859 60.6456 60.8307 61.2133 59.1484C61.7862 57.4714 62.5883 55.9141 63.63 54.4818Z" fill="#49688D"/>
</g>
<defs>
<clipPath id="clip0_76_3712">
<rect width="258" height="1012" fill="white"/>
</clipPath>
</defs>
</svg>
