<svg width="86" height="86" viewBox="0 0 86 86" fill="none" xmlns="http://www.w3.org/2000/svg">
<mask id="mask0_53_1502" style="mask-type:luminance" maskUnits="userSpaceOnUse" x="0" y="0" width="86" height="86">
<path d="M0 0H86V86H0V0Z" fill="white"/>
</mask>
<g mask="url(#mask0_53_1502)">
<path d="M9.85938 86H76.4792C81.7292 86 86 81.7292 86 76.4792V9.85938C86 4.60938 81.7292 0.34375 76.4792 0.34375H9.85938C4.60938 0.34375 0.34375 4.60938 0.34375 9.85938V76.4792C0.34375 81.7292 4.60938 86 9.85938 86ZM56.0521 20.7708C57.9063 22.625 57.9063 25.6458 56.0521 27.5L40.3802 43.1719L56.0521 58.8385C57.9063 60.6979 57.9063 63.7135 56.0521 65.5677C54.1979 67.4271 51.1771 67.4271 49.3229 65.5677L30.2865 46.5365C28.4323 44.6771 28.4323 41.6615 30.2865 39.8073L49.3229 20.7708C51.1823 18.9115 54.1979 18.9115 56.0521 20.7708Z" fill="#D6DEE6"/>
</g>
</svg>
