<svg width="34" height="34" viewBox="0 0 34 34" fill="none" xmlns="http://www.w3.org/2000/svg">
<path d="M24.7891 26.5117C24.4089 26.5117 24.0286 26.3867 23.7734 26.0013L8.47656 10.6523C7.84115 10.0117 7.84115 9.11589 8.47656 8.48047C9.11719 7.83984 10.0078 7.83984 10.6432 8.48047L25.9401 23.8294C26.5755 24.4648 26.5755 25.3607 25.9401 26.0013C25.5547 26.2565 25.1745 26.5117 24.7891 26.5117Z" fill="#141223"/>
<path d="M9.4974 26.5117C9.11719 26.5117 8.73177 26.3867 8.47656 26.0013C7.84115 25.3607 7.84115 24.4648 8.47656 23.8294L23.7734 8.48047C24.4089 7.83984 25.2995 7.83984 25.9401 8.48047C26.5755 9.11589 26.5755 10.0117 25.9401 10.6523L10.6432 26.0013C10.263 26.2565 9.87761 26.5117 9.4974 26.5117Z" fill="#141223"/>
</svg>
