<svg width="34" height="34" viewBox="0 0 34 34" fill="none" xmlns="http://www.w3.org/2000/svg">
<path d="M31.8646 27.8802L22.6875 18.6719C23.8333 16.8802 24.4688 14.7083 24.4688 12.276C24.4688 5.5 18.9896 0 12.2344 0C5.47917 0 0 5.5 0 12.276C0 19.0573 5.47917 24.5573 12.2344 24.5573C14.5313 24.5573 16.5677 23.9167 18.3542 22.8958L27.5313 32.1042C28.6771 33.2552 30.5885 33.2552 31.8646 32.1042C33.0104 31.0781 33.0104 29.1615 31.8646 27.8802ZM4.84375 12.4062C4.84375 8.3125 8.15625 4.98438 12.1094 4.98438C16.1875 4.98438 19.5 8.3125 19.5 12.4062C19.5 16.5 16.1875 19.6979 12.1094 19.6979C8.15625 19.6979 4.84375 16.3698 4.84375 12.4062Z" fill="#010101"/>
</svg>
