<svg width="26" height="26" viewBox="0 0 26 26" fill="none" xmlns="http://www.w3.org/2000/svg">
<g clip-path="url(#clip0_53_3265)">
<path d="M10.3918 24.4596C9.72518 24.4596 9.18351 23.918 9.18351 23.2461V16.0586H1.98039C1.31372 16.0586 0.766846 15.5169 0.766846 14.8451C0.766846 14.1784 1.31372 13.6367 1.98039 13.6367H10.3918C11.0637 13.6367 11.6054 14.1784 11.6054 14.8451V23.2461C11.6054 23.918 11.0637 24.4596 10.3918 24.4596Z" fill="#EDF2C2"/>
<path d="M1.20964 25.2253C0.902345 25.2253 0.589844 25.1108 0.355469 24.8764C-0.11849 24.4024 -0.11849 23.6316 0.355469 23.1628L9.53776 13.991C10.0117 13.5222 10.7773 13.5222 11.2513 13.991C11.7201 14.4649 11.7201 15.2358 11.2513 15.7045L2.06901 24.8764C1.82943 25.1055 1.52214 25.2253 1.20964 25.2253Z" fill="#EDF2C2"/>
<path d="M23.2825 11.5846H14.871C14.1991 11.5846 13.6575 11.0429 13.6575 10.3762V1.97518C13.6575 1.30851 14.1991 0.766846 14.871 0.766846C15.5377 0.766846 16.0793 1.30851 16.0793 1.97518V9.16789H23.2825C23.9543 9.16789 24.496 9.70955 24.496 10.3762C24.496 11.0429 23.9543 11.5846 23.2825 11.5846Z" fill="#EDF2C2"/>
<path d="M14.8711 11.5846C14.5586 11.5846 14.2513 11.4701 14.0117 11.2357C13.543 10.7669 13.543 9.99609 14.0117 9.52214L23.1992 0.355468C23.668 -0.118489 24.4388 -0.118489 24.9076 0.355468C25.3815 0.824219 25.3815 1.59505 24.9076 2.06901L15.7253 11.2357C15.4909 11.4701 15.1784 11.5846 14.8711 11.5846Z" fill="#EDF2C2"/>
</g>
<defs>
<clipPath id="clip0_53_3265">
<rect width="26" height="26" fill="white"/>
</clipPath>
</defs>
</svg>
